<?xml version="1.0" encoding="utf-8"?>
<!-- Generator: Adobe Illustrator 17.0.0, SVG Export Plug-In . SVG Version: 6.00 Build 0)  -->
<!DOCTYPE svg PUBLIC "-//W3C//DTD SVG 1.1//EN" "http://www.w3.org/Graphics/SVG/1.1/DTD/svg11.dtd">
<svg version="1.1" xmlns="http://www.w3.org/2000/svg" xmlns:xlink="http://www.w3.org/1999/xlink" x="0px" y="0px" width="374px"
	 height="237px" viewBox="0 0 374 237" enable-background="new 0 0 374 237" xml:space="preserve">
<symbol  id="backdrop" viewBox="-194 -320.5 388 641">
	<polygon opacity="0.8" fill="#231916" points="194,-320.5 -194,-320.5 -194,320.5 194,320.5 	"/>
</symbol>
<symbol  id="check_box_off" viewBox="-13.374 -13.838 23 23">
	<g>
		<path fill="none" stroke="#717171" stroke-miterlimit="10" d="M9.126-2.338c0-6.075-4.925-11-11-11s-11,4.925-11,11
			s4.925,11,11,11S9.126,3.737,9.126-2.338z"/>
	</g>
</symbol>
<symbol  id="check_box_on" viewBox="-14.875 -15.338 26 26">
	<g>
		<path fill="#046EB6" d="M11.125-2.338c0-7.18-5.82-13-13-13s-13,5.82-13,13s5.82,13,13,13S11.125,4.842,11.125-2.338z"/>
		<polyline fill="none" stroke="#FFFFFF" stroke-miterlimit="10" points="-9.875,-3.338 -4.111,-8.338 4.889,2.662 		"/>
	</g>
</symbol>
<symbol  id="icon-close" viewBox="-15.635 -16.371 32 32">
	
		<use xlink:href="#ph-32"  width="32" height="32" x="-16" y="-16" transform="matrix(1 0 0 1 0.3652 -0.3708)" overflow="visible"/>
	<g>
		<path fill="#FFFFFF" d="M-1.365-0.14L6.646,7.87c0.424,0.424,1.112,0.424,1.536,0c0.424-0.424,0.424-1.112,0-1.536L1.707-0.14
			l6.474-6.474c0.424-0.424,0.424-1.112,0-1.536c-0.424-0.424-1.112-0.424-1.536,0L-1.365-0.14L-1.365-0.14z M-1.365-0.14"/>
	</g>
	<g>
		<path fill="#FFFFFF" d="M1.365,0.141L-6.645-7.87c-0.424-0.424-1.112-0.424-1.536,0c-0.424,0.424-0.424,1.112,0,1.536l6.474,6.474
			l-6.474,6.474c-0.424,0.424-0.424,1.112,0,1.536c0.424,0.424,1.112,0.424,1.536,0L1.365,0.141L1.365,0.141z M1.365,0.141"/>
	</g>
</symbol>
<symbol  id="icon-custoner" viewBox="-15.5 -16.789 31 33.577">
	<g>
		<path fill="#046EB6" d="M0,13.789c5.422,0,9.833-4.411,9.833-9.833c0-5.422-4.411-9.833-9.833-9.833s-9.833,4.411-9.833,9.833
			C-9.833,9.377-5.422,13.789,0,13.789 M0,16.789c-7.087,0-12.833-5.749-12.833-12.833C-12.833-3.129-7.087-8.878,0-8.878
			c7.089,0,12.833,5.749,12.833,12.833C12.833,11.04,7.089,16.789,0,16.789L0,16.789z"/>
	</g>
	<path fill="none" stroke="#046EB6" stroke-width="3" stroke-miterlimit="10" d="M-14-16.789c0,5.153,6.271,9.333,14,9.333
		c7.736,0,14-4.18,14-9.333"/>
</symbol>
<symbol  id="icon-next-dark" viewBox="-16.135 -16 32 32">
	
		<use xlink:href="#ph-32"  width="32" height="32" id="XMLID_30_" x="-16" y="-16" transform="matrix(1 0 0 1 -0.1345 0)" overflow="visible"/>
	<path fill="#717171" d="M6.865,1.574l-8.932-9.209c-0.473-0.488-1.24-0.488-1.713,0c-0.473,0.488-0.473,1.278,0,1.766l7.219,7.443
		L-3.78,9.017c-0.473,0.488-0.473,1.278,0,1.766c0.473,0.488,1.24,0.488,1.713,0L6.865,1.574L6.865,1.574z M6.865,1.574"/>
</symbol>
<symbol  id="icon-vehicle" viewBox="-96.5 -80.921 193 161.842">
	<g>
		<path id="wheal2_3_" fill="#046EB6" d="M-56.951-30.578c-9.119,0-16.538,7.419-16.538,16.539c0,9.119,7.419,16.54,16.538,16.54
			c9.119,0,16.539-7.421,16.539-16.54C-40.413-23.159-47.832-30.578-56.951-30.578z M-56.951-6.114c-4.37,0-7.926-3.555-7.926-7.927
			c0-4.372,3.555-7.926,7.926-7.926c4.37,0,7.926,3.554,7.926,7.926C-49.026-9.67-52.581-6.114-56.951-6.114z"/>
		<path id="wheal1_3_" fill="#046EB6" d="M56.624-30.578c-9.119,0-16.54,7.419-16.54,16.539c0,9.119,7.421,16.54,16.54,16.54
			S73.162-4.92,73.162-14.04C73.162-23.159,65.743-30.578,56.624-30.578L56.624-30.578z M56.624-6.114
			c-4.37,0-7.927-3.555-7.927-7.927c0-4.372,3.555-7.926,7.927-7.926c4.372,0,7.926,3.554,7.926,7.926
			C64.55-9.67,60.994-6.114,56.624-6.114z"/>
		<path id="body_3_" fill="#046EB6" d="M68.477,27.438v23.338c0,16.621-13.524,30.145-30.145,30.145h-80.484
			c-16.621,0-30.145-13.524-30.145-30.145V26.93C-86.083,24.162-96.5,11.963-96.5-2.624v-25.709
			c0-14.703,10.585-26.975,24.533-29.613v-6.609c0-9.023,7.342-16.364,16.365-16.364h0.878c9.023,0,16.365,7.342,16.365,16.364
			v6.077h76.416v-6.077c0-9.023,7.342-16.364,16.364-16.364h0.878c9.023,0,16.365,7.342,16.365,16.364v6.555
			C85.761-55.485,96.5-43.145,96.5-28.336v25.711C96.5,13.283,84.111,26.344,68.477,27.438z M-60.24,50.776
			c0,9.974,8.113,18.087,18.087,18.087H38.33c9.974,0,18.087-8.113,18.087-18.087V27.521H44.324
			c-0.543,13.296-11.526,23.947-24.953,23.947S-5.038,40.817-5.58,27.521h-54.66V50.776z M35.685,27.521H3.059
			c0.536,8.542,7.639,15.335,16.314,15.335C28.048,42.855,35.15,36.063,35.685,27.521z M-50.418-64.556
			c0-2.375-1.933-4.306-4.306-4.306h-0.878c-2.374,0-4.306,1.931-4.306,4.306v6.077h9.491V-64.556z M59.605-64.556
			c0-2.375-1.931-4.306-4.306-4.306h-0.878c-2.375,0-4.306,1.931-4.306,4.306v6.077h9.491V-64.556z M84.442-28.336
			c0-9.974-8.113-18.087-18.087-18.087h-132.71c-9.974,0-18.087,8.113-18.087,18.087v25.711c0,9.974,8.113,18.087,18.087,18.087
			h132.71c9.974,0,18.087-8.113,18.087-18.087V-28.336z"/>
	</g>
</symbol>
<symbol  id="ph-32" viewBox="-16 -16 32 32">
	<polygon opacity="0" fill="#FFFFFF" points="16,-16 -16,-16 -16,16 16,16 	"/>
	<polygon display="none" fill="none" points="-16,16 16,16 16,-16 -16,-16 	"/>
</symbol>
<symbol  id="主" viewBox="-11.5 -9.5 23 19">
	<g>
		<path fill="#0FAB67" d="M4.5,8.5c0.552,0,1-0.449,1-1v-14c0-0.551-0.448-1-1-1h-14c-0.552,0-1,0.449-1,1v14c0,0.551,0.448,1,1,1
			H4.5 M4.5,9.5h-14c-1.1,0-2-0.9-2-2v-14c0-1.1,0.9-2,2-2h14c1.1,0,2,0.9,2,2v14C6.5,8.6,5.6,9.5,4.5,9.5L4.5,9.5z"/>
	</g>
	<polygon fill="none" points="11.5,-9.5 -8.5,-9.5 -8.5,5.5 11.5,5.5 	"/>
	<text transform="matrix(1 0 0 -1 -8.5 -3.2925)" fill="#0FAB67" font-family="'MicrosoftYaHei'" font-size="11">主</text>
</symbol>
<symbol  id="展开" viewBox="-7.619 -11.278 15.238 22.556">
	<polyline fill="none" stroke="#EDEDEE" stroke-width="2" stroke-miterlimit="10" points="-6.973,10.515 6.027,-0.485 
		-6.973,-10.485 	"/>
</symbol>
<symbol  id="开" viewBox="-23.75 -10.605 47.5 21.212">
	<path fill="#00903A" stroke="#9D9D9E" stroke-miterlimit="10" d="M23.25,0c0-5.581-4.524-10.106-10.106-10.106h-26.288
		C-18.726-10.105-23.25-5.581-23.25,0l0,0c0,5.581,4.524,10.106,10.106,10.106h26.288C18.726,10.106,23.25,5.582,23.25,0L23.25,0z"
		/>
	<path fill="#FFFFFF" d="M21.75-0.355c0-4.832-3.918-8.75-8.75-8.75s-8.75,3.918-8.75,8.75s3.918,8.75,8.75,8.75
		S21.75,4.477,21.75-0.355z"/>
</symbol>
<symbol  id="开关关" viewBox="-23.75 -10.605 47.5 21.212">
	<path fill="#DADBDB" stroke="#9D9D9E" stroke-miterlimit="10" d="M23.25,0c0-5.581-4.524-10.106-10.106-10.106h-26.288
		C-18.726-10.105-23.25-5.581-23.25,0l0,0c0,5.581,4.524,10.106,10.106,10.106h26.288C18.726,10.106,23.25,5.582,23.25,0L23.25,0z"
		/>
	<path fill="#FFFFFF" d="M-4.25,0.645c0-4.832-3.918-8.75-8.75-8.75s-8.75,3.918-8.75,8.75s3.918,8.75,8.75,8.75
		S-4.25,5.477-4.25,0.645z"/>
</symbol>
<symbol  id="收起符号" viewBox="-11.278 -7.619 22.556 15.238">
	<polyline fill="none" stroke="#EDEDEE" stroke-width="2" stroke-miterlimit="10" points="10.515,6.973 -0.485,-6.027 
		-10.485,6.973 	"/>
</symbol>
<symbol  id="点开" viewBox="-8 -8 16 16">
	<polygon fill="#808080" points="8,-2.667 -8,-2.667 -8,1.481 8,1.481 	"/>
	<polygon fill="#808080" points="2.074,8 2.074,-8 -2.074,-8 -2.074,8 	"/>
</symbol>
<symbol  id="第一个确认" viewBox="-192.285 -299.648 384.571 598.196">
	<g>
		<g>
			<g>
				<polygon fill="#E4E4E3" points="190.881,-220.148 -192.285,-220.148 -192.285,-175.256 190.881,-175.256 				"/>
				<text transform="matrix(1 0 0 -1.01 -173.1182 -201.1479)" fill="#808080" font-family="'MicrosoftYaHei'" font-size="16">业务员信息输入</text>
				<text transform="matrix(1 0 0 -1.01 -156.1182 -258.04)" fill="#808080" font-family="'MicrosoftYaHei'" font-size="16">声明、条款、浮动告知单</text>
				<text transform="matrix(1 0 0 -1.01 -154.127 -289.04)" fill="#808080" font-family="'MicrosoftYaHei'" font-size="16">我已阅读并同意以上内容</text>
				<polygon fill="#E4E4E3" points="191.69,263.765 -192.285,263.765 -192.285,298.549 191.69,298.549 				"/>
				<text transform="matrix(1 0 0 -1 -172.127 272.8521)" fill="#808080" font-family="'MicrosoftYaHei'" font-size="16">车辆信息</text>
				<polygon fill="#E4E4E3" points="192.286,-32.148 -191.69,-32.148 -191.69,11.636 192.286,11.636 				"/>
				<polygon fill="#E4E4E3" points="191.957,-78.931 -192.019,-78.931 -192.019,-35.148 191.957,-35.148 				"/>
				<polygon fill="#E4E4E3" points="191.774,-126.148 -192.202,-126.148 -192.202,-82.364 191.774,-82.364 				"/>
				<polygon fill="#E4E4E3" points="191.774,-173.148 -192.202,-173.148 -192.202,-129.364 191.774,-129.364 				"/>
				<text transform="matrix(1 0 0 -1 -171.9092 -14.2295)" fill="#808080" font-family="'MicrosoftYaHei'" font-size="16">车主信息</text>
				
					<use xlink:href="#展开"  width="15.238" height="22.556" x="-7.619" y="-11.278" transform="matrix(1 0 0 1 170.1859 -12.2533)" overflow="visible"/>
				
					<use xlink:href="#展开"  width="15.238" height="22.556" x="-7.619" y="-11.278" transform="matrix(1 0 0 1 168.1859 -61.8093)" overflow="visible"/>
				<text transform="matrix(1 0 0 -1 -174.0435 -60.1484)" fill="#808080" font-family="'MicrosoftYaHei'" font-size="16">投保人/被保险人信息</text>
				<text transform="matrix(1 0 0 -1.01 -172.043 -111.1475)" fill="#808080" font-family="'MicrosoftYaHei'" font-size="16">保险生效日</text>
				<text transform="matrix(1 0 0 -1.01 -172.043 -156.1484)" fill="#808080" font-family="'MicrosoftYaHei'" font-size="16">商业险责任及保费</text>
				
					<use xlink:href="#展开"  width="15.238" height="22.556" x="-7.619" y="-11.278" transform="matrix(1 0 0 1 170.3331 -102.8694)" overflow="visible"/>
				
					<use xlink:href="#展开"  width="15.238" height="22.556" x="-7.619" y="-11.278" transform="matrix(1 0 0 1 170.0952 -147.8694)" overflow="visible"/>
				
					<use xlink:href="#开关关"  width="47.5" height="21.212" x="-23.75" y="-10.605" transform="matrix(1 0 0 1 155.6311 -193.6456)" overflow="visible"/>
				
					<use xlink:href="#点开"  width="16" height="16" x="-8" y="-8" transform="matrix(1 0 0 1 -169.1272 -254.1477)" overflow="visible"/>
				
					<use xlink:href="#check_box_on"  width="26" height="26" x="-14.875" y="-15.338" transform="matrix(1 0 0 1 -166.7522 -284.3098)" overflow="visible"/>
				<text transform="matrix(1 0 0 -1 71.8809 43.9814)" fill="#B3B4B4" font-family="'MicrosoftYaHei'" font-size="16">其他信息&gt;&gt;</text>
				<text transform="matrix(1 0 0 -1 -87.7363 97.8979)" fill="#F19500" font-family="'MicrosoftYaHei'" font-size="19">京AD1122   奔驰CC</text>
			</g>
		</g>
	</g>
	
		<use xlink:href="#icon-vehicle"  width="193" height="161.842" x="-96.5" y="-80.921" transform="matrix(0.7202 0 0 0.7202 -3.2363 168.786)" overflow="visible"/>
</symbol>
<symbol  id="附" viewBox="-11.5 -9.5 23 19">
	<g>
		<path fill="#DE9713" d="M4.5,8.5c0.552,0,1-0.449,1-1v-14c0-0.551-0.448-1-1-1h-14c-0.552,0-1,0.449-1,1v14c0,0.551,0.448,1,1,1
			H4.5 M4.5,9.5h-14c-1.1,0-2-0.9-2-2v-14c0-1.1,0.9-2,2-2h14c1.1,0,2,0.9,2,2v14C6.5,8.6,5.6,9.5,4.5,9.5L4.5,9.5z"/>
	</g>
	<polygon fill="none" points="11.5,-9.5 -8.5,-9.5 -8.5,5.5 11.5,5.5 	"/>
	<text transform="matrix(1 0 0 -1 -8.5 -3.2925)" fill="#DE9713" font-family="'MicrosoftYaHei'" font-size="11">附</text>
</symbol>
<g id="layer" display="none">
	<g display="inline">
	</g>
</g>
<g id="guides">
</g>
<g id="查询-有车牌">
</g>
<g id="查询_xFF0D_无结果">
</g>
<g id="查询-无车牌">
</g>
<g id="调整险别">
</g>
<g id="调整险别-试算">
</g>
<g id="续保确认">
</g>
<g id="续保确认-完整">
</g>
<g id="恭喜方案">
	<g>
		
			<use xlink:href="#backdrop"  width="388" height="641" x="-194" y="-320.5" transform="matrix(1 0 0 -1 188 127.5)" display="none" overflow="visible"/>
		<g display="none">
			<defs>
				<rect id="SVGID_64_" x="-5" y="29" width="387" height="418"/>
			</defs>
			<clipPath id="SVGID_2_" display="inline">
				<use xlink:href="#SVGID_64_"  overflow="visible"/>
			</clipPath>
			<linearGradient id="SVGID_4_" gradientUnits="userSpaceOnUse" x1="188.5" y1="447" x2="188.5" y2="29">
				<stop  offset="0" style="stop-color:#9E0000"/>
				<stop  offset="0.4209" style="stop-color:#AE0303"/>
				<stop  offset="0.9118" style="stop-color:#C90000"/>
			</linearGradient>
			<rect x="-5" y="29" display="inline" clip-path="url(#SVGID_2_)" fill="url(#SVGID_4_)" width="387" height="418"/>
			<g clip-path="url(#SVGID_2_)">
				<g display="inline">
					<g>
						
							<linearGradient id="SVGID_5_" gradientUnits="userSpaceOnUse" x1="183.9658" y1="129" x2="183.9658" y2="-107" gradientTransform="matrix(0.9397 0.342 -0.342 0.9397 57.9513 -54.6579)">
							<stop  offset="0" style="stop-color:#FF2727;stop-opacity:0.6"/>
							<stop  offset="0.512" style="stop-color:#F24C28;stop-opacity:0.6669"/>
							<stop  offset="1" style="stop-color:#ED2828;stop-opacity:0"/>
						</linearGradient>
						<path fill="url(#SVGID_5_)" d="M189.553,130.52c0,0,5.217-19.597,7.355-26.056c2.766-8.356,0.781-16.033,4.45-23.921
							c3.905-8.395,5.572-12.559,8.464-20.331c2.892-7.772-1.363-13.798,1.631-24.947c2.812-10.471,5.162-9.9,7.182-19.734
							c1.656-8.059-4.182-14.824,1.033-26.228c3.767-8.237,11.223-9.395,15.128-21.098c2.976-8.918-4.298-17.198-1.444-28.194
							c2.853-10.996,24.701-35.705,24.701-35.705l28.788,11.542c0,0-22.355,23.053-25.363,34.4
							c-3.008,11.346,0.482,15.48-2.912,25.544c-4.475,13.27-13.423,16.412-15.812,22.978c-3.711,10.195,1.179,10.512-3.104,23.346
							c-3.905,11.704-9.877,15.241-12.031,21.161c-3.078,8.457-0.812,11.201-4.299,20.783c-3.933,10.806-6.986,13.145-9.468,19.966
							c-3.078,8.457-4.405,11.975-8.4,20.355C200.955,113.812,189.553,130.52,189.553,130.52z"/>
					</g>
				</g>
				<g display="inline">
					<g>
						
							<linearGradient id="SVGID_7_" gradientUnits="userSpaceOnUse" x1="183.9658" y1="129" x2="183.9658" y2="-107" gradientTransform="matrix(0.766 0.6428 -0.6428 0.766 131.1017 -86.199)">
							<stop  offset="0" style="stop-color:#FF2727;stop-opacity:0.6"/>
							<stop  offset="0.512" style="stop-color:#F24C28;stop-opacity:0.6669"/>
							<stop  offset="1" style="stop-color:#ED2828;stop-opacity:0"/>
						</linearGradient>
						<path fill="url(#SVGID_7_)" d="M191.432,132.822c0,0,11.605-16.631,15.823-21.969c5.457-6.906,6.217-14.799,12.363-20.956
							c6.541-6.553,9.531-9.896,14.907-16.21c5.376-6.314,3.439-13.432,10.065-22.885c6.224-8.878,8.237-7.537,13.499-16.087
							c4.312-7.006,1.14-15.361,9.941-24.293c6.357-6.452,13.76-4.989,21.432-14.652c5.846-7.362,1.844-17.631,8.286-26.988
							c6.442-9.357,35.424-25.103,35.424-25.103l23.105,20.692c0,0-28.892,14.017-35.599,23.65s-4.841,14.711-11.473,23.008
							c-8.744,10.939-18.226,10.831-22.718,16.184c-6.974,8.311-2.488,10.281-10.902,20.877
							c-7.672,9.662-14.494,10.944-18.543,15.77c-5.785,6.894-4.594,10.248-11.148,18.059c-7.392,8.81-11.06,9.963-15.726,15.524
							c-5.785,6.894-8.235,9.747-14.855,16.254C207.861,121.021,191.432,132.822,191.432,132.822z"/>
					</g>
				</g>
				<g display="inline">
					<g>
						
							<linearGradient id="SVGID_9_" gradientUnits="userSpaceOnUse" x1="183.9658" y1="129" x2="183.9658" y2="-107" gradientTransform="matrix(0.5 0.866 -0.866 0.5 210.6284 -90.8191)">
							<stop  offset="0" style="stop-color:#FF2727;stop-opacity:0.6"/>
							<stop  offset="0.512" style="stop-color:#F24C28;stop-opacity:0.6669"/>
							<stop  offset="1" style="stop-color:#ED2828;stop-opacity:0"/>
						</linearGradient>
						<path fill="url(#SVGID_9_)" d="M192.411,135.628c0,0,16.594-11.659,22.383-15.232c7.49-4.623,10.904-11.781,18.785-15.464
							c8.388-3.921,12.341-6.039,19.553-10.134c7.212-4.095,7.825-11.446,17.285-18.062c8.885-6.214,10.318-4.265,18.187-10.5
							c6.448-5.109,6.325-14.044,17.651-19.428c8.18-3.889,14.636,0.018,25.151-6.438c8.012-4.919,7.763-15.937,17.017-22.526
							c9.254-6.589,41.873-11.474,41.873-11.474l14.634,27.347c0,0-31.943,3.29-41.541,10.049s-9.581,12.168-18.651,17.696
							c-11.958,7.289-20.831,3.944-26.883,7.438c-9.396,5.425-5.854,8.81-17.384,15.889c-10.514,6.455-17.363,5.327-22.819,8.477
							c-7.794,4.5-7.822,8.059-16.652,13.157c-9.959,5.75-13.801,5.58-20.087,9.209c-7.794,4.5-11.072,6.342-19.518,10.193
							C211.885,130.158,192.411,135.628,192.411,135.628z"/>
					</g>
				</g>
				<g display="inline">
					<g>
						
							<linearGradient id="SVGID_11_" gradientUnits="userSpaceOnUse" x1="183.9658" y1="129" x2="183.9658" y2="-107" gradientTransform="matrix(0.1736 0.9848 -0.9848 0.1736 286.9392 -67.9608)">
							<stop  offset="0" style="stop-color:#FF2727;stop-opacity:0.6"/>
							<stop  offset="0.512" style="stop-color:#F24C28;stop-opacity:0.6669"/>
							<stop  offset="1" style="stop-color:#ED2828;stop-opacity:0"/>
						</linearGradient>
						<path fill="url(#SVGID_11_)" d="M192.371,138.599c0,0,19.581-5.28,26.243-6.658c8.619-1.783,14.276-7.341,22.941-8.107
							c9.223-0.815,13.662-1.454,21.839-2.835s11.268-8.079,22.42-11.061c10.474-2.801,11.154-0.479,20.681-3.647
							c7.807-2.596,10.747-11.034,23.231-12.22c9.017-0.857,13.748,5.022,25.836,2.552c9.211-1.882,12.745-12.321,23.695-15.348
							c10.95-3.027,43.272,3.54,43.272,3.54l4.398,30.703c0,0-31.142-7.833-42.473-4.765c-11.33,3.068-13.165,8.157-23.578,10.25
							c-13.729,2.759-20.924-3.419-27.805-2.205c-10.685,1.884-8.514,6.277-21.77,8.985c-12.088,2.47-18.138-0.933-24.342,0.161
							c-8.863,1.563-10.106,4.898-20.148,6.668c-11.325,1.997-14.877,0.523-22.025,1.783c-8.863,1.563-12.573,2.173-21.828,2.903
							C212.542,140.119,192.371,138.599,192.371,138.599z"/>
					</g>
				</g>
				<g display="inline">
					<g>
						
							<linearGradient id="SVGID_12_" gradientUnits="userSpaceOnUse" x1="183.9658" y1="129" x2="183.9658" y2="-107" gradientTransform="matrix(-0.1736 0.9848 -0.9848 -0.1736 350.8298 -20.3812)">
							<stop  offset="0" style="stop-color:#FF2727;stop-opacity:0.6"/>
							<stop  offset="0.512" style="stop-color:#F24C28;stop-opacity:0.6669"/>
							<stop  offset="1" style="stop-color:#ED2828;stop-opacity:0"/>
						</linearGradient>
						<path fill="url(#SVGID_12_)" d="M191.317,141.377c0,0,20.206,1.735,26.937,2.719c8.709,1.273,15.925-2.015,24.33,0.228
							c8.946,2.388,13.336,3.306,21.492,4.805c8.156,1.499,13.352-3.738,24.851-2.726c10.8,0.951,10.646,3.365,20.681,3.647
							c8.224,0.231,13.873-6.693,26.009-3.537c8.766,2.279,11.201,9.421,23.405,11.235c9.299,1.382,16.19-7.219,27.515-6.318
							c11.325,0.901,39.452,18.126,39.452,18.126l-6.368,30.355c0,0-26.585-18.012-38.281-19.005
							c-11.696-0.992-15.161,3.163-25.662,1.568c-13.845-2.103-18.493-10.369-25.374-11.582
							c-10.685-1.884-10.147,2.986-23.531,0.997c-12.204-1.813-16.725-7.08-22.929-8.174c-8.863-1.563-11.172,1.146-21.214-0.625
							c-11.325-1.997-14.159-4.597-21.307-5.857c-8.863-1.563-12.558-2.258-21.504-4.738
							C209.751,149.705,191.317,141.377,191.317,141.377z"/>
					</g>
				</g>
				<g display="inline">
					<g>
						
							<linearGradient id="SVGID_14_" gradientUnits="userSpaceOnUse" x1="183.9658" y1="129" x2="183.9658" y2="-107" gradientTransform="matrix(-0.5 0.866 -0.866 -0.5 394.5942 46.1809)">
							<stop  offset="0" style="stop-color:#FF2727;stop-opacity:0.6"/>
							<stop  offset="0.512" style="stop-color:#F24C28;stop-opacity:0.6669"/>
							<stop  offset="1" style="stop-color:#ED2828;stop-opacity:0"/>
						</linearGradient>
						<path fill="url(#SVGID_14_)" d="M189.377,143.628c0,0,18.394,8.541,24.383,11.768c7.749,4.175,15.654,3.553,22.785,8.536
							c7.589,5.304,11.401,7.668,18.553,11.866s13.825,1.054,24.285,5.938c9.824,4.587,8.853,6.803,18.187,10.5
							c7.649,3.03,15.325-1.544,25.651,5.572c7.458,5.14,7.303,12.684,18.151,18.562c8.266,4.479,17.683-1.246,28.017,3.474
							s30.873,30.526,30.873,30.526l-16.366,26.347c0,0-18.821-26.019-29.473-30.951c-10.652-4.933-15.328-2.213-24.651-7.304
							c-12.291-6.711-13.831-16.068-19.883-19.562c-9.396-5.425-10.557-0.665-22.453-7.111
							c-10.848-5.878-13.295-12.373-18.75-15.523c-7.794-4.5-10.89-2.744-19.721-7.843c-9.959-5.75-11.733-9.162-18.018-12.791
							c-7.794-4.5-11.028-6.417-18.587-11.807C203.851,157.758,189.377,143.628,189.377,143.628z"/>
					</g>
				</g>
				<g display="inline">
					<g>
						
							<linearGradient id="SVGID_16_" gradientUnits="userSpaceOnUse" x1="183.9658" y1="129" x2="183.9658" y2="-107" gradientTransform="matrix(-0.766 0.6428 -0.6428 -0.766 412.9537 123.6971)">
							<stop  offset="0" style="stop-color:#FF2727;stop-opacity:0.6"/>
							<stop  offset="0.512" style="stop-color:#F24C28;stop-opacity:0.6669"/>
							<stop  offset="1" style="stop-color:#ED2828;stop-opacity:0"/>
						</linearGradient>
						<path fill="url(#SVGID_16_)" d="M186.784,145.079c0,0,14.363,14.317,18.887,19.398c5.853,6.573,13.495,8.693,18.491,15.814
							c5.318,7.58,8.09,11.105,13.375,17.496s12.631,5.719,20.789,13.886c7.663,7.671,5.992,9.42,13.499,16.087
							c6.151,5.463,14.929,3.79,22.198,14.009c5.25,7.381,2.524,14.417,10.707,23.651c6.235,7.036,17.043,4.877,25.139,12.846
							c8.096,7.969,18.571,39.245,18.571,39.245l-24.39,19.16c0,0-8.787-30.887-17.109-39.165
							c-8.322-8.278-13.647-7.322-20.666-15.294c-9.254-10.51-7.501-19.83-11.993-25.183c-6.974-8.311-9.693-4.235-18.667-14.361
							c-8.183-9.234-8.261-16.174-12.31-21c-5.785-6.894-9.295-6.303-15.849-14.115c-7.392-8.81-7.891-12.622-12.557-18.182
							c-5.785-6.894-8.169-9.802-13.428-17.452C195.552,163.307,186.784,145.079,186.784,145.079z"/>
					</g>
				</g>
				<g display="inline">
					<g>
						
							<linearGradient id="SVGID_18_" gradientUnits="userSpaceOnUse" x1="183.9658" y1="129" x2="183.9658" y2="-107" gradientTransform="matrix(-0.9397 0.342 -0.342 -0.9397 403.6939 202.8179)">
							<stop  offset="0" style="stop-color:#FF2727;stop-opacity:0.6"/>
							<stop  offset="0.512" style="stop-color:#F24C28;stop-opacity:0.6669"/>
							<stop  offset="1" style="stop-color:#ED2828;stop-opacity:0"/>
						</linearGradient>
						<path fill="url(#SVGID_18_)" d="M183.851,145.555c0,0,8.6,18.366,11.114,24.688c3.252,8.179,9.708,12.784,11.967,21.185
							c2.405,8.941,3.804,13.202,6.585,21.015c2.78,7.813,9.913,9.694,14.786,20.158c4.577,9.829,2.409,10.902,7.182,19.734
							c3.912,7.237,12.732,8.668,16.068,20.756c2.409,8.731-2.559,14.411,1.973,25.886c3.453,8.744,14.347,10.412,19.229,20.67
							c4.882,10.258,4.028,43.229,4.028,43.229l-29.473,9.663c0,0,2.307-32.029-2.682-42.655
							c-4.989-10.625-10.319-11.548-14.189-21.44c-5.102-13.042-0.267-21.2-2.657-27.766c-3.711-10.195-7.66-7.295-12.629-19.879
							c-4.531-11.476-2.231-18.024-4.386-23.944c-3.078-8.457-6.578-9.102-10.066-18.684c-3.933-10.806-3.098-14.56-5.581-21.381
							c-3.078-8.457-4.323-12.005-6.649-20.992C185.856,165.683,183.851,145.555,183.851,145.555z"/>
					</g>
				</g>
				<g display="inline">
					<g>
						
							<linearGradient id="SVGID_19_" gradientUnits="userSpaceOnUse" x1="183.9658" y1="129" x2="183.9658" y2="-107" gradientTransform="matrix(-1 0 0 -1 367.9317 274)">
							<stop  offset="0" style="stop-color:#FF2727;stop-opacity:0.6"/>
							<stop  offset="0.512" style="stop-color:#F24C28;stop-opacity:0.6669"/>
							<stop  offset="1" style="stop-color:#ED2828;stop-opacity:0"/>
						</linearGradient>
						<path fill="url(#SVGID_19_)" d="M180.932,145c0,0,1.8,20.2,2,27c0.259,8.798,4.75,15.333,4,24c-0.799,9.225-0.94,13.707-1,22
							s6,12.5,7,24c0.939,10.801-1.465,11.068,0,21c1.2,8.139,9,12.5,8,25c-0.722,9.029-7.333,12.667-7,25
							c0.254,9.398,9.92,14.691,11,26c1.08,11.309-11,42-11,42l-31-1c0,0,13.122-29.309,12.068-41s-5.747-14.381-6-25
							c-0.333-14,7-20.013,7-27c0-10.85-4.703-9.475-5.068-23c-0.333-12.333,4.068-17.7,4.068-24c0-9-3.068-10.803-3.068-21
							c0-11.5,2.068-14.742,2.068-22c0-9,0.043-12.759,0.932-22C175.932,164.6,180.932,145,180.932,145z"/>
					</g>
				</g>
				<g display="inline">
					<g>
						
							<linearGradient id="SVGID_21_" gradientUnits="userSpaceOnUse" x1="183.9658" y1="129" x2="183.9658" y2="-107" gradientTransform="matrix(-0.9397 -0.342 0.342 -0.9397 309.9804 328.6579)">
							<stop  offset="0" style="stop-color:#FF2727;stop-opacity:0.6"/>
							<stop  offset="0.512" style="stop-color:#F24C28;stop-opacity:0.6669"/>
							<stop  offset="1" style="stop-color:#ED2828;stop-opacity:0"/>
						</linearGradient>
						<path fill="url(#SVGID_21_)" d="M178.379,143.48c0,0-5.217,19.597-7.355,26.056c-2.766,8.356-0.781,16.033-4.45,23.921
							c-3.905,8.395-5.572,12.559-8.464,20.331c-2.892,7.772,1.363,13.798-1.631,24.947c-2.812,10.471-5.162,9.9-7.182,19.734
							c-1.656,8.059,4.182,14.824-1.033,26.228c-3.767,8.237-11.223,9.395-15.128,21.098c-2.976,8.918,4.298,17.198,1.444,28.194
							c-2.853,10.996-24.701,35.705-24.701,35.705l-28.788-11.542c0,0,22.355-23.053,25.363-34.4s-0.482-15.48,2.912-25.544
							c4.475-13.27,13.423-16.412,15.812-22.978c3.711-10.195-1.179-10.512,3.104-23.346c3.905-11.704,9.877-15.241,12.031-21.161
							c3.078-8.457,0.812-11.201,4.299-20.783c3.933-10.806,6.986-13.145,9.468-19.966c3.078-8.457,4.405-11.975,8.4-20.355
							C166.976,160.188,178.379,143.48,178.379,143.48z"/>
					</g>
				</g>
				<g display="inline">
					<g>
						
							<linearGradient id="SVGID_22_" gradientUnits="userSpaceOnUse" x1="183.9658" y1="129" x2="183.9658" y2="-107" gradientTransform="matrix(-0.766 -0.6428 0.6428 -0.766 236.8299 360.199)">
							<stop  offset="0" style="stop-color:#FF2727;stop-opacity:0.6"/>
							<stop  offset="0.512" style="stop-color:#F24C28;stop-opacity:0.6669"/>
							<stop  offset="1" style="stop-color:#ED2828;stop-opacity:0"/>
						</linearGradient>
						<path fill="url(#SVGID_22_)" d="M176.499,141.178c0,0-11.605,16.631-15.823,21.969c-5.457,6.906-6.217,14.799-12.363,20.956
							c-6.541,6.553-9.531,9.896-14.907,16.21c-5.376,6.314-3.439,13.432-10.065,22.885c-6.224,8.878-8.237,7.537-13.499,16.087
							c-4.312,7.006-1.14,15.361-9.941,24.293c-6.357,6.452-13.76,4.989-21.432,14.652c-5.846,7.362-1.844,17.631-8.286,26.988
							c-6.442,9.357-35.424,25.103-35.424,25.103l-23.105-20.692c0,0,28.892-14.017,35.599-23.65
							c6.708-9.633,4.841-14.711,11.473-23.008c8.744-10.939,18.226-10.831,22.718-16.184c6.974-8.311,2.488-10.281,10.902-20.877
							c7.672-9.662,14.494-10.944,18.543-15.77c5.785-6.894,4.594-10.248,11.148-18.059c7.392-8.81,11.06-9.963,15.726-15.524
							c5.785-6.894,8.235-9.747,14.855-16.254C160.07,152.979,176.499,141.178,176.499,141.178z"/>
					</g>
				</g>
				<g display="inline">
					<g>
						
							<linearGradient id="SVGID_24_" gradientUnits="userSpaceOnUse" x1="183.9658" y1="129" x2="183.9658" y2="-107" gradientTransform="matrix(-0.5 -0.866 0.866 -0.5 157.3033 364.8191)">
							<stop  offset="0" style="stop-color:#FF2727;stop-opacity:0.6"/>
							<stop  offset="0.512" style="stop-color:#F24C28;stop-opacity:0.6669"/>
							<stop  offset="1" style="stop-color:#ED2828;stop-opacity:0"/>
						</linearGradient>
						<path fill="url(#SVGID_24_)" d="M175.521,138.372c0,0-16.594,11.659-22.383,15.232c-7.49,4.623-10.904,11.781-18.785,15.464
							c-8.388,3.921-12.341,6.039-19.553,10.134s-7.825,11.446-17.285,18.062c-8.885,6.214-10.318,4.265-18.187,10.5
							c-6.448,5.109-6.325,14.044-17.651,19.428c-8.18,3.889-14.636-0.018-25.151,6.438c-8.012,4.919-7.763,15.937-17.017,22.526
							c-9.254,6.589-41.873,11.474-41.873,11.474l-14.634-27.347c0,0,31.943-3.29,41.541-10.049
							c9.598-6.758,9.581-12.168,18.651-17.696c11.958-7.289,20.831-3.944,26.883-7.438c9.396-5.425,5.854-8.81,17.384-15.889
							c10.514-6.455,17.363-5.327,22.819-8.477c7.794-4.5,7.822-8.059,16.652-13.157c9.959-5.75,13.801-5.58,20.087-9.209
							c7.794-4.5,11.072-6.342,19.518-10.193C156.046,143.842,175.521,138.372,175.521,138.372z"/>
					</g>
				</g>
				<g display="inline">
					<g>
						
							<linearGradient id="SVGID_26_" gradientUnits="userSpaceOnUse" x1="183.9658" y1="129" x2="183.9658" y2="-107" gradientTransform="matrix(-0.1736 -0.9848 0.9848 -0.1736 80.9925 341.9608)">
							<stop  offset="0" style="stop-color:#FF2727;stop-opacity:0.6"/>
							<stop  offset="0.512" style="stop-color:#F24C28;stop-opacity:0.6669"/>
							<stop  offset="1" style="stop-color:#ED2828;stop-opacity:0"/>
						</linearGradient>
						<path fill="url(#SVGID_26_)" d="M175.561,135.401c0,0-19.581,5.28-26.243,6.658c-8.619,1.783-14.275,7.341-22.941,8.107
							c-9.223,0.815-13.662,1.454-21.839,2.835s-11.268,8.079-22.42,11.061c-10.474,2.801-11.154,0.479-20.681,3.647
							c-7.807,2.596-10.747,11.034-23.231,12.22c-9.017,0.857-13.748-5.022-25.836-2.552c-9.211,1.882-12.745,12.321-23.695,15.348
							c-10.95,3.027-43.272-3.54-43.272-3.54l-4.398-30.703c0,0,31.142,7.833,42.473,4.765c11.33-3.068,13.165-8.157,23.578-10.25
							c13.729-2.759,20.924,3.419,27.805,2.205c10.685-1.884,8.514-6.277,21.77-8.985c12.088-2.47,18.138,0.933,24.342-0.161
							c8.863-1.563,10.106-4.898,20.148-6.668c11.325-1.997,14.877-0.523,22.025-1.783c8.863-1.563,12.573-2.173,21.828-2.903
							C155.39,133.881,175.561,135.401,175.561,135.401z"/>
					</g>
				</g>
				<g display="inline">
					<g>
						
							<linearGradient id="SVGID_27_" gradientUnits="userSpaceOnUse" x1="183.9658" y1="129" x2="183.9658" y2="-107" gradientTransform="matrix(0.1736 -0.9848 0.9848 0.1736 17.1018 294.3812)">
							<stop  offset="0" style="stop-color:#FF2727;stop-opacity:0.6"/>
							<stop  offset="0.512" style="stop-color:#F24C28;stop-opacity:0.6669"/>
							<stop  offset="1" style="stop-color:#ED2828;stop-opacity:0"/>
						</linearGradient>
						<path fill="url(#SVGID_27_)" d="M176.614,132.623c0,0-20.206-1.735-26.937-2.719c-8.709-1.273-15.925,2.015-24.33-0.228
							c-8.946-2.388-13.336-3.306-21.492-4.805c-8.156-1.499-13.352,3.738-24.851,2.726c-10.8-0.951-10.646-3.365-20.681-3.647
							c-8.224-0.231-13.873,6.693-26.009,3.537c-8.766-2.279-11.201-9.421-23.405-11.235c-9.299-1.382-16.19,7.219-27.515,6.318
							s-39.452-18.126-39.452-18.126l6.368-30.355c0,0,26.585,18.012,38.281,19.005s15.161-3.163,25.662-1.568
							c13.845,2.103,18.493,10.369,25.374,11.582c10.685,1.884,10.147-2.986,23.531-0.997c12.204,1.813,16.725,7.08,22.929,8.174
							c8.863,1.563,11.172-1.146,21.214,0.625c11.325,1.997,14.159,4.597,21.307,5.857c8.863,1.563,12.558,2.258,21.504,4.738
							C158.18,124.295,176.614,132.623,176.614,132.623z"/>
					</g>
				</g>
				<g display="inline">
					<g>
						
							<linearGradient id="SVGID_29_" gradientUnits="userSpaceOnUse" x1="183.9658" y1="129" x2="183.9658" y2="-107" gradientTransform="matrix(0.5 -0.866 0.866 0.5 -26.6626 227.8191)">
							<stop  offset="0" style="stop-color:#FF2727;stop-opacity:0.6"/>
							<stop  offset="0.512" style="stop-color:#F24C28;stop-opacity:0.6669"/>
							<stop  offset="1" style="stop-color:#ED2828;stop-opacity:0"/>
						</linearGradient>
						<path fill="url(#SVGID_29_)" d="M178.555,130.372c0,0-18.394-8.541-24.383-11.768c-7.749-4.175-15.654-3.553-22.785-8.536
							c-7.589-5.304-11.401-7.668-18.553-11.866S99.01,97.149,88.55,92.265c-9.824-4.587-8.853-6.803-18.187-10.5
							c-7.649-3.03-15.325,1.544-25.651-5.572c-7.458-5.14-7.303-12.684-18.151-18.562c-8.266-4.479-17.683,1.246-28.017-3.474
							s-30.873-30.526-30.873-30.526l16.366-26.347c0,0,18.821,26.019,29.473,30.951s15.328,2.213,24.651,7.304
							c12.291,6.711,13.831,16.068,19.883,19.562c9.396,5.425,10.557,0.665,22.453,7.111c10.848,5.878,13.295,12.373,18.75,15.523
							c7.794,4.5,10.89,2.744,19.721,7.843c9.959,5.75,11.733,9.162,18.018,12.791c7.794,4.5,11.028,6.417,18.587,11.807
							C164.081,116.242,178.555,130.372,178.555,130.372z"/>
					</g>
				</g>
				<g display="inline">
					<g>
						
							<linearGradient id="SVGID_31_" gradientUnits="userSpaceOnUse" x1="183.9658" y1="129" x2="183.9658" y2="-107" gradientTransform="matrix(0.766 -0.6428 0.6428 0.766 -45.0221 150.3029)">
							<stop  offset="0" style="stop-color:#FF2727;stop-opacity:0.6"/>
							<stop  offset="0.512" style="stop-color:#F24C28;stop-opacity:0.6669"/>
							<stop  offset="1" style="stop-color:#ED2828;stop-opacity:0"/>
						</linearGradient>
						<path fill="url(#SVGID_31_)" d="M181.148,128.921c0,0-14.363-14.317-18.887-19.398c-5.853-6.573-13.495-8.693-18.491-15.814
							c-5.318-7.58-8.09-11.105-13.375-17.496s-12.631-5.719-20.789-13.886c-7.663-7.671-5.992-9.42-13.499-16.087
							c-6.151-5.463-14.929-3.79-22.198-14.009c-5.25-7.381-2.524-14.417-10.707-23.651C56.966,1.546,46.158,3.705,38.062-4.264
							S19.491-43.509,19.491-43.509l24.39-19.16c0,0,8.787,30.887,17.109,39.165S74.638-16.182,81.657-8.21
							c9.254,10.51,7.502,19.83,11.993,25.183c6.974,8.311,9.693,4.235,18.667,14.361c8.183,9.234,8.261,16.174,12.31,21
							c5.785,6.894,9.295,6.303,15.849,14.115c7.392,8.81,7.891,12.622,12.557,18.182c5.785,6.894,8.169,9.802,13.428,17.452
							C172.379,110.693,181.148,128.921,181.148,128.921z"/>
					</g>
				</g>
				<g display="inline">
					<g>
						
							<linearGradient id="SVGID_33_" gradientUnits="userSpaceOnUse" x1="183.9658" y1="129" x2="183.9658" y2="-107" gradientTransform="matrix(0.9397 -0.342 0.342 0.9397 -35.7623 71.1821)">
							<stop  offset="0" style="stop-color:#FF2727;stop-opacity:0.6"/>
							<stop  offset="0.512" style="stop-color:#F24C28;stop-opacity:0.6669"/>
							<stop  offset="1" style="stop-color:#ED2828;stop-opacity:0"/>
						</linearGradient>
						<path fill="url(#SVGID_33_)" d="M184.081,128.445c0,0-8.6-18.366-11.114-24.688c-3.252-8.179-9.708-12.784-11.967-21.185
							c-2.405-8.941-3.804-13.202-6.585-21.015c-2.78-7.813-9.913-9.694-14.786-20.158c-4.577-9.829-2.409-10.902-7.182-19.734
							c-3.912-7.237-12.732-8.668-16.068-20.756c-2.409-8.731,2.559-14.411-1.973-25.886c-3.453-8.744-14.347-10.412-19.229-20.67
							c-4.882-10.258-4.028-43.229-4.028-43.229l29.472-9.663c0,0-2.307,32.029,2.682,42.655
							c4.989,10.626,10.319,11.548,14.189,21.44c5.102,13.042,0.267,21.2,2.657,27.766c3.711,10.195,7.66,7.295,12.629,19.879
							c4.531,11.476,2.231,18.024,4.386,23.944c3.078,8.457,6.578,9.102,10.066,18.684c3.933,10.806,3.098,14.56,5.581,21.381
							c3.078,8.457,4.323,12.005,6.649,20.992C182.076,108.317,184.081,128.445,184.081,128.445z"/>
					</g>
				</g>
				<g display="inline">
					<g>
						<linearGradient id="SVGID_35_" gradientUnits="userSpaceOnUse" x1="183.9658" y1="129" x2="183.9658" y2="-107">
							<stop  offset="0" style="stop-color:#FF2727;stop-opacity:0.6"/>
							<stop  offset="0.512" style="stop-color:#F24C28;stop-opacity:0.6669"/>
							<stop  offset="1" style="stop-color:#ED2828;stop-opacity:0"/>
						</linearGradient>
						<path fill="url(#SVGID_35_)" d="M187,129c0,0-1.8-20.2-2-27c-0.259-8.798-4.75-15.333-4-24c0.799-9.225,0.94-13.707,1-22
							s-6-12.5-7-24c-0.939-10.801,1.465-11.068,0-21c-1.2-8.139-9-12.5-8-25c0.722-9.029,7.333-12.667,7-25
							c-0.254-9.398-9.92-14.691-11-26c-1.08-11.309,11-42,11-42l31,1c0,0-13.122,29.309-12.068,41s5.747,14.381,6,25
							c0.333,14-7,20.013-7,27c0,10.85,4.703,9.475,5.068,23c0.333,12.333-4.068,17.7-4.068,24c0,9,3.068,10.803,3.068,21
							c0,11.5-2.068,14.742-2.068,22c0,9-0.043,12.759-0.932,22C192,109.4,187,129,187,129z"/>
					</g>
				</g>
			</g>
			<radialGradient id="SVGID_37_" cx="191" cy="149" r="155" gradientUnits="userSpaceOnUse">
				<stop  offset="0.2637" style="stop-color:#FF6127;stop-opacity:0.8707"/>
				<stop  offset="1" style="stop-color:#F64028;stop-opacity:0"/>
			</radialGradient>
			<circle clip-path="url(#SVGID_2_)" fill="url(#SVGID_37_)" cx="191" cy="149" r="155"/>
			<g clip-path="url(#SVGID_2_)">
				
					<use xlink:href="#icon-close"  width="32" height="32" x="-15.635" y="-16.371" transform="matrix(1 0 0 -1 353.7054 54.3705)" display="inline" overflow="visible"/>
			</g>
			<g clip-path="url(#SVGID_2_)">
				<rect x="18" y="214" display="inline" opacity="0.6" fill="#F7740F" width="340" height="119"/>
				<linearGradient id="SVGID_39_" gradientUnits="userSpaceOnUse" x1="17.7453" y1="214.5" x2="347" y2="214.5">
					<stop  offset="0.0368" style="stop-color:#FAC062"/>
					<stop  offset="0.9274" style="stop-color:#FFA638;stop-opacity:0.1"/>
				</linearGradient>
				<rect x="17.745" y="214" display="inline" fill="url(#SVGID_39_)" width="329.255" height="1"/>
				<g display="inline">
					<g>
						<g opacity="0.65">
							<circle cx="295.375" cy="269.5" r="33.5"/>
						</g>
						<g>
							<linearGradient id="SVGID_41_" gradientUnits="userSpaceOnUse" x1="269.6869" y1="291.1881" x2="317.0631" y2="243.8119">
								<stop  offset="0" style="stop-color:#FA0053"/>
								<stop  offset="0.9407" style="stop-color:#94004F"/>
							</linearGradient>
							<circle fill="url(#SVGID_41_)" cx="293.375" cy="267.5" r="33.5"/>
						</g>
					</g>
				</g>
			</g>
		</g>
		<g>
			<g display="none">
				<g display="inline" opacity="0.85">
					<text transform="matrix(1 0 0 1 112 142)"><tspan x="0" y="0" font-family="'PingFangSC-Semibold'" font-size="39">优质客户</tspan><tspan x="0" y="46.8" font-family="'PingFangSC-Semibold'" font-size="39">专享折扣</tspan></text>
					<text transform="matrix(1 0 0 1 77 85)" font-family="'PingFangSC-Semibold'" font-size="19">恭喜获得</text>
				</g>
				<g display="inline">
					<g>
						<text transform="matrix(1 0 0 1 109 139)"><tspan x="0" y="0" fill="#F9F26E" font-family="'PingFangSC-Semibold'" font-size="39">优质客户</tspan><tspan x="0" y="46.8" fill="#F9F26E" font-family="'PingFangSC-Semibold'" font-size="39">专享折扣</tspan></text>
						<text transform="matrix(1 0 0 1 74 82)" fill="#F9EC00" font-family="'PingFangSC-Semibold'" font-size="19">恭喜获得</text>
					</g>
				</g>
			</g>
			<g>
				<g opacity="0.35">
					<path d="M77.062,42c2.227-0.742,8-33.125,8-33.125L128,57L77.062,42z"/>
				</g>
				<g>
					<linearGradient id="SVGID_43_" gradientUnits="userSpaceOnUse" x1="78.4187" y1="22.2675" x2="120.4963" y2="54.9395">
						<stop  offset="0.1322" style="stop-color:#FA9B26"/>
						<stop  offset="0.9118" style="stop-color:#D6ED28"/>
					</linearGradient>
					<path fill="url(#SVGID_43_)" d="M72.062,37c2.227-0.742,8-33.125,8-33.125L123,52L72.062,37z"/>
				</g>
			</g>
			<g>
				<g opacity="0.35">
					<path d="M21.75,61c2.227-0.742,6-21,6-21L48,59L21.75,61z"/>
				</g>
				<g>
					<linearGradient id="SVGID_45_" gradientUnits="userSpaceOnUse" x1="19.9714" y1="45.6723" x2="38.3121" y2="59.9132">
						<stop  offset="0.1322" style="stop-color:#FA9B26"/>
						<stop  offset="0.9118" style="stop-color:#ED2828"/>
					</linearGradient>
					<path fill="url(#SVGID_45_)" d="M16.75,56c2.227-0.742,6-21,6-21L43,54L16.75,56z"/>
				</g>
			</g>
			<g>
				<g opacity="0.35">
					<path d="M8.875,95.667C9.5,91,6.833,74.75,6.833,74.75L23,87l3,10L8.875,95.667z"/>
				</g>
				<g>
					<linearGradient id="SVGID_47_" gradientUnits="userSpaceOnUse" x1="0.8024" y1="78.4638" x2="19.8975" y2="93.2906">
						<stop  offset="0.1322" style="stop-color:#FA26E1"/>
						<stop  offset="0.9118" style="stop-color:#ED0E72"/>
					</linearGradient>
					<path fill="url(#SVGID_47_)" d="M3.875,90.667C4.5,86,1.833,69.75,1.833,69.75L18,82l3,10L3.875,90.667z"/>
				</g>
			</g>
			<g>
				<g opacity="0.35">
					<path d="M341.041,190.917C341.667,186.25,337,176,337,176l25.25-3L375,198L341.041,190.917z"/>
				</g>
				<g>
					<linearGradient id="SVGID_49_" gradientUnits="userSpaceOnUse" x1="340.0304" y1="171.8217" x2="368.8918" y2="194.2317">
						<stop  offset="0.1322" style="stop-color:#FA26E1"/>
						<stop  offset="0.9118" style="stop-color:#ED0E72"/>
					</linearGradient>
					<path fill="url(#SVGID_49_)" d="M336.041,185.917C336.667,181.25,332,171,332,171l25.25-3L370,193L336.041,185.917z"/>
				</g>
			</g>
			<g>
				<g opacity="0.35">
					<path d="M323.883,36c2.227-0.742-28,6-28,6l-4,20L323.883,36z"/>
				</g>
				<g>
					<linearGradient id="SVGID_51_" gradientUnits="userSpaceOnUse" x1="294.3395" y1="37.2946" x2="306.6106" y2="46.8227">
						<stop  offset="0.1322" style="stop-color:#3BFA26"/>
						<stop  offset="0.9118" style="stop-color:#1FB88C"/>
					</linearGradient>
					<path fill="url(#SVGID_51_)" d="M318.883,31c2.227-0.742-28,6-28,6l-4,20L318.883,31z"/>
				</g>
			</g>
			<g>
				<g opacity="0.35">
					<path d="M82.875,126c2.227-0.742-11-18-11-18l-5,15L82.875,126z"/>
				</g>
				<g>
					<linearGradient id="SVGID_53_" gradientUnits="userSpaceOnUse" x1="64.7608" y1="110.7997" x2="77.8863" y2="120.9912">
						<stop  offset="0.1322" style="stop-color:#3BFA26"/>
						<stop  offset="0.9118" style="stop-color:#1FB88C"/>
					</linearGradient>
					<path fill="url(#SVGID_53_)" d="M77.875,121c2.227-0.742-11-18-11-18l-5,15L77.875,121z"/>
				</g>
			</g>
			<g>
				<g opacity="0.35">
					<path d="M287.574,143c2.227-0.742-5-9-5-9l-5,15L287.574,143z"/>
				</g>
				<g>
					<linearGradient id="SVGID_55_" gradientUnits="userSpaceOnUse" x1="274.1911" y1="135.8145" x2="280.5451" y2="140.7482">
						<stop  offset="0.1322" style="stop-color:#3BFA26"/>
						<stop  offset="0.9118" style="stop-color:#1FB88C"/>
					</linearGradient>
					<path fill="url(#SVGID_55_)" d="M282.574,138c2.227-0.742-5-9-5-9l-5,15L282.574,138z"/>
				</g>
			</g>
			<g>
				<g opacity="0.35">
					<path d="M331.509,93.875c2.227-0.742-25-2-25-2l11.13,19L331.509,93.875z"/>
				</g>
				<g>
					<linearGradient id="SVGID_57_" gradientUnits="userSpaceOnUse" x1="305.8824" y1="86.6379" x2="319.8318" y2="97.4692">
						<stop  offset="0.1322" style="stop-color:#269BFA"/>
						<stop  offset="0.9118" style="stop-color:#1FB88C"/>
					</linearGradient>
					<path fill="url(#SVGID_57_)" d="M326.509,88.875c2.227-0.742-25-2-25-2l11.13,19L326.509,88.875z"/>
				</g>
			</g>
			<g>
				<g opacity="0.35">
					<path d="M63.746,161c2.227-0.742-25-2-25-2l14,13L63.746,161z"/>
				</g>
				<g>
					<linearGradient id="SVGID_59_" gradientUnits="userSpaceOnUse" x1="40.1126" y1="151.1961" x2="54.062" y2="162.0274">
						<stop  offset="0.1322" style="stop-color:#269BFA"/>
						<stop  offset="0.9118" style="stop-color:#1FB88C"/>
					</linearGradient>
					<path fill="url(#SVGID_59_)" d="M58.746,156c2.227-0.742-25-2-25-2l14,13L58.746,156z"/>
				</g>
			</g>
			<g>
				<g opacity="0.35">
					<path d="M298.25,192c2.227-0.742-13.25-13-13.25-13l3,17L298.25,192z"/>
				</g>
				<g>
					<linearGradient id="SVGID_61_" gradientUnits="userSpaceOnUse" x1="278.7462" y1="180.3618" x2="291.0189" y2="189.8911">
						<stop  offset="0.1322" style="stop-color:#269BFA"/>
						<stop  offset="0.9118" style="stop-color:#1FB88C"/>
					</linearGradient>
					<path fill="url(#SVGID_61_)" d="M293.25,187c2.227-0.742-13.25-13-13.25-13l3,17L293.25,187z"/>
				</g>
			</g>
		</g>
	</g>
</g>
<g id="Layer_22">
</g>
<g id="告知确定">
</g>
<g id="投保信息确认成功">
</g>
</svg>
