<?xml version="1.0" encoding="utf-8"?>
<!-- Generator: Adobe Illustrator 17.0.0, SVG Export Plug-In . SVG Version: 6.00 Build 0)  -->
<!DOCTYPE svg PUBLIC "-//W3C//DTD SVG 1.1//EN" "http://www.w3.org/Graphics/SVG/1.1/DTD/svg11.dtd">
<svg version="1.1" xmlns="http://www.w3.org/2000/svg" xmlns:xlink="http://www.w3.org/1999/xlink" x="0px" y="0px" width="115px"
	 height="118px" viewBox="0 0 115 118" enable-background="new 0 0 115 118" xml:space="preserve">
<symbol  id="CDW" viewBox="-23.5 -27 59 55">
	<g>
		<g>
			<polygon fill="#1FA939" points="35.5,-27 -23.5,-27 -23.5,28 35.5,28 			"/>
		</g>
		<polyline display="none" fill="none" stroke="#FFFFFF" stroke-miterlimit="10" points="19.5,19 22.8,15.7 29.5,23.4 		"/>
		<polygon fill="none" points="23.5,-9 -6.5,-9 -6.5,13 23.5,13 		"/>
		<text transform="matrix(1 0 0 -1.01 -6.5 4.208)"><tspan x="0" y="0" fill="#FFFFFF" font-family="'MicrosoftYaHei'" font-size="11" letter-spacing="2">不计</tspan><tspan x="0" y="13.1" fill="#FFFFFF" font-family="'MicrosoftYaHei'" font-size="11" letter-spacing="2">免赔</tspan></text>
	</g>
</symbol>
<symbol  id="CDW_2" viewBox="-23.5 -27 59 55">
	<g>
		<g>
			<polygon fill="#F6F6F6" points="35.5,-27 -23.5,-27 -23.5,28 35.5,28 			"/>
		</g>
		<polyline display="none" fill="none" stroke="#FFFFFF" stroke-miterlimit="10" points="19.5,19 22.8,15.7 29.5,23.4 		"/>
		<polygon fill="none" points="23.5,-9 -6.5,-9 -6.5,13 23.5,13 		"/>
		<text transform="matrix(1 0 0 -1.01 -6.5 4.208)"><tspan x="0" y="0" fill="#B3B4B4" font-family="'MicrosoftYaHei'" font-size="11" letter-spacing="2">不计</tspan><tspan x="0" y="13.1" fill="#B3B4B4" font-family="'MicrosoftYaHei'" font-size="11" letter-spacing="2">免赔</tspan></text>
	</g>
</symbol>
<symbol  id="check_box_off" viewBox="-13.4 -13.8 23 23">
	<g>
		<path fill="none" stroke="#717171" stroke-miterlimit="10" d="M9.1-2.3c0-6.1-4.9-11-11-11s-11,4.9-11,11s4.9,11,11,11
			S9.1,3.7,9.1-2.3z"/>
	</g>
</symbol>
<symbol  id="check_box_on" viewBox="-14.9 -15.3 26 26">
	<g>
		<path fill="#046EB6" d="M11.1-2.3c0-7.2-5.8-13-13-13s-13,5.8-13,13s5.8,13,13,13S11.1,4.8,11.1-2.3z"/>
		<polyline fill="none" stroke="#FFFFFF" stroke-miterlimit="10" points="-9.9,-3.3 -4.1,-8.3 4.9,2.7 		"/>
	</g>
</symbol>
<symbol  id="icon-custoner" viewBox="-15.5 -16.8 31 33.6">
	<g>
		<path fill="#046EB6" d="M0,13.8c5.4,0,9.8-4.4,9.8-9.8c0-5.4-4.4-9.8-9.8-9.8S-9.8-1.5-9.8,4C-9.8,9.4-5.4,13.8,0,13.8 M0,16.8
			C-7.1,16.8-12.8,11-12.8,4C-12.8-3.1-7.1-8.9,0-8.9C7.1-8.9,12.8-3.1,12.8,4C12.8,11,7.1,16.8,0,16.8L0,16.8z"/>
	</g>
	<path fill="none" stroke="#046EB6" stroke-width="3" stroke-miterlimit="10" d="M-14-16.8c0,5.2,6.3,9.3,14,9.3
		c7.7,0,14-4.2,14-9.3"/>
</symbol>
<symbol  id="icon-next-dark" viewBox="-16.1 -16 32 32">
	
		<use xlink:href="#ph-32"  width="32" height="32" id="XMLID_30_" x="-16" y="-16" transform="matrix(1 0 0 1 -0.1345 0)" overflow="visible"/>
	<path fill="#717171" d="M6.9,1.6l-8.9-9.2c-0.5-0.5-1.2-0.5-1.7,0c-0.5,0.5-0.5,1.3,0,1.8l7.2,7.4L-3.8,9c-0.5,0.5-0.5,1.3,0,1.8
		c0.5,0.5,1.2,0.5,1.7,0L6.9,1.6L6.9,1.6z M6.9,1.6"/>
</symbol>
<symbol  id="icon-vehicle" viewBox="-96.5 -80.9 193 161.8">
	<g>
		<path id="wheal2_3_" fill="#046EB6" d="M-57-30.6c-9.1,0-16.5,7.4-16.5,16.5c0,9.1,7.4,16.5,16.5,16.5c9.1,0,16.5-7.4,16.5-16.5
			C-40.4-23.2-47.8-30.6-57-30.6z M-57-6.1c-4.4,0-7.9-3.6-7.9-7.9c0-4.4,3.6-7.9,7.9-7.9c4.4,0,7.9,3.6,7.9,7.9
			C-49-9.7-52.6-6.1-57-6.1z"/>
		<path id="wheal1_3_" fill="#046EB6" d="M56.6-30.6c-9.1,0-16.5,7.4-16.5,16.5c0,9.1,7.4,16.5,16.5,16.5S73.2-4.9,73.2-14
			C73.2-23.2,65.7-30.6,56.6-30.6L56.6-30.6z M56.6-6.1c-4.4,0-7.9-3.6-7.9-7.9c0-4.4,3.6-7.9,7.9-7.9c4.4,0,7.9,3.6,7.9,7.9
			C64.5-9.7,61-6.1,56.6-6.1z"/>
		<path id="body_3_" fill="#046EB6" d="M68.5,27.4v23.3c0,16.6-13.5,30.1-30.1,30.1h-80.5c-16.6,0-30.1-13.5-30.1-30.1V26.9
			c-13.8-2.8-24.2-15-24.2-29.6v-25.7c0-14.7,10.6-27,24.5-29.6v-6.6c0-9,7.3-16.4,16.4-16.4h0.9c9,0,16.4,7.3,16.4,16.4v6.1h76.4
			v-6.1c0-9,7.3-16.4,16.4-16.4h0.9c9,0,16.4,7.3,16.4,16.4v6.6c14.1,2.5,24.8,14.9,24.8,29.7v25.7C96.5,13.3,84.1,26.3,68.5,27.4z
			 M-60.2,50.8c0,10,8.1,18.1,18.1,18.1h80.5c10,0,18.1-8.1,18.1-18.1V27.5H44.3c-0.5,13.3-11.5,23.9-25,23.9S-5,40.8-5.6,27.5
			h-54.7V50.8z M35.7,27.5H3.1c0.5,8.5,7.6,15.3,16.3,15.3C28,42.9,35.1,36.1,35.7,27.5z M-50.4-64.6c0-2.4-1.9-4.3-4.3-4.3h-0.9
			c-2.4,0-4.3,1.9-4.3,4.3v6.1h9.5V-64.6z M59.6-64.6c0-2.4-1.9-4.3-4.3-4.3h-0.9c-2.4,0-4.3,1.9-4.3,4.3v6.1h9.5V-64.6z M84.4-28.3
			c0-10-8.1-18.1-18.1-18.1H-66.4c-10,0-18.1,8.1-18.1,18.1v25.7c0,10,8.1,18.1,18.1,18.1H66.4c10,0,18.1-8.1,18.1-18.1V-28.3z"/>
	</g>
</symbol>
<symbol  id="ph-32" viewBox="-16 -16 32 32">
	<polygon opacity="0" fill="#FFFFFF" points="16,-16 -16,-16 -16,16 16,16 	"/>
	<polygon display="none" fill="none" points="-16,16 16,16 16,-16 -16,-16 	"/>
</symbol>
<symbol  id="主" viewBox="-11.5 -9.5 23 19">
	<g>
		<path fill="#0FAB67" d="M4.5,8.5c0.6,0,1-0.4,1-1v-14c0-0.6-0.4-1-1-1h-14c-0.6,0-1,0.4-1,1v14c0,0.6,0.4,1,1,1H4.5 M4.5,9.5h-14
			c-1.1,0-2-0.9-2-2v-14c0-1.1,0.9-2,2-2h14c1.1,0,2,0.9,2,2v14C6.5,8.6,5.6,9.5,4.5,9.5L4.5,9.5z"/>
	</g>
	<polygon fill="none" points="11.5,-9.5 -8.5,-9.5 -8.5,5.5 11.5,5.5 	"/>
	<text transform="matrix(1 0 0 -1 -8.5 -3.2925)" fill="#0FAB67" font-family="'MicrosoftYaHei'" font-size="11">主</text>
</symbol>
<symbol  id="展开" viewBox="-7.6 -11.3 15.2 22.6">
	<polyline fill="none" stroke="#EDEDEE" stroke-width="2" stroke-miterlimit="10" points="-7,10.5 6,-0.5 -7,-10.5 	"/>
</symbol>
<symbol  id="开" viewBox="-23 -12 46 23">
	<g>
		<g>
			<path fill="#00903A" d="M22-0.5C22-6.3,17.3-11,11.5-11h-24C-18.3-11-23-6.3-23-0.5v1C-23,6.3-18.3,11-12.5,11h24
				C17.3,11,22,6.3,22,0.5V-0.5z"/>
			<path fill="#9D9D9E" d="M12,10c5.5,0,10-4,10-9.5v-1C22-6,17.5-11,12-11h-24c-5.5,0-10,5-10,10.5v1C-22,6-17.5,10-12,10H12
				 M12,11h-24c-6.1,0-11-4.4-11-10.5v-1c0-6,4.9-11.5,11-11.5h24c6.1,0,11,5.5,11,11.5v1C23,6.6,18.1,11,12,11L12,11z"/>
		</g>
		<path fill="#FFFFFF" d="M21-0.5c0-5-4-9-9-9s-9,4-9,9s4,9,9,9S21,4.5,21-0.5z"/>
	</g>
</symbol>
<symbol  id="附" viewBox="-11.5 -9.5 23 19">
	<g>
		<path fill="#DE9713" d="M4.5,8.5c0.6,0,1-0.4,1-1v-14c0-0.6-0.4-1-1-1h-14c-0.6,0-1,0.4-1,1v14c0,0.6,0.4,1,1,1H4.5 M4.5,9.5h-14
			c-1.1,0-2-0.9-2-2v-14c0-1.1,0.9-2,2-2h14c1.1,0,2,0.9,2,2v14C6.5,8.6,5.6,9.5,4.5,9.5L4.5,9.5z"/>
	</g>
	<polygon fill="none" points="11.5,-9.5 -8.5,-9.5 -8.5,5.5 11.5,5.5 	"/>
	<text transform="matrix(1 0 0 -1 -8.5 -3.2925)" fill="#DE9713" font-family="'MicrosoftYaHei'" font-size="11">附</text>
</symbol>
<g id="layer">
	<g>
	</g>
</g>
<g id="guides">
</g>
<g id="查询-有车牌">
</g>
<g id="查询_xFF0D_无结果">
</g>
<g id="查询-无车牌">
</g>
<g id="调整险别">
</g>
<g id="调整险别-试算">
</g>
<g id="续保确认">
</g>
<g id="续保确认-完整">
</g>
<g id="恭喜方案">
</g>
<g id="Layer_22" display="none">
</g>
<g id="告知确定">
	<g id="repeat_1_">
	</g>
</g>
<g id="投保信息确认成功">
	<g id="失败">
		<g>
			<g>
				<path fill="#C20F23" d="M59,14c24.3,0,44,19.7,44,44s-19.7,44-44,44S15,82.3,15,58S34.7,14,59,14 M59,10c-26.5,0-48,21.5-48,48
					s21.5,48,48,48s48-21.5,48-48S85.5,10,59,10L59,10z"/>
			</g>
			<g>
				<line fill="none" stroke="#C20F23" stroke-width="4" stroke-miterlimit="10" x1="39.8" y1="40" x2="78" y2="78.2"/>
				<line fill="none" stroke="#C20F23" stroke-width="4" stroke-miterlimit="10" x1="78" y1="40" x2="39.8" y2="78.2"/>
			</g>
		</g>
	</g>
</g>
</svg>
