<?xml version="1.0" encoding="utf-8"?>
<!-- Generator: Adobe Illustrator 17.0.0, SVG Export Plug-In . SVG Version: 6.00 Build 0)  -->
<!DOCTYPE svg PUBLIC "-//W3C//DTD SVG 1.1//EN" "http://www.w3.org/Graphics/SVG/1.1/DTD/svg11.dtd">
<svg version="1.1" xmlns="http://www.w3.org/2000/svg" xmlns:xlink="http://www.w3.org/1999/xlink" x="0px" y="0px" width="388px"
	 height="194px" viewBox="0 0 388 194" enable-background="new 0 0 388 194" xml:space="preserve">
<symbol  id="CDW" viewBox="-23.5 -27 59 55">
	<g>
		<g>
			<polygon fill="#1FA939" points="35.5,-27 -23.5,-27 -23.5,28 35.5,28 			"/>
		</g>
		<polyline display="none" fill="none" stroke="#FFFFFF" stroke-miterlimit="10" points="19.5,19 22.8,15.7 29.5,23.4 		"/>
		<polygon fill="none" points="23.5,-9 -6.5,-9 -6.5,13 23.5,13 		"/>
		<text transform="matrix(1 0 0 -1.01 -6.5 4.208)"><tspan x="0" y="0" fill="#FFFFFF" font-family="'MicrosoftYaHei'" font-size="11" letter-spacing="2">不计</tspan><tspan x="0" y="13.1" fill="#FFFFFF" font-family="'MicrosoftYaHei'" font-size="11" letter-spacing="2">免赔</tspan></text>
	</g>
</symbol>
<symbol  id="CDW_2" viewBox="-23.5 -27 59 55">
	<g>
		<g>
			<polygon fill="#F6F6F6" points="35.5,-27 -23.5,-27 -23.5,28 35.5,28 			"/>
		</g>
		<polyline display="none" fill="none" stroke="#FFFFFF" stroke-miterlimit="10" points="19.5,19 22.8,15.7 29.5,23.4 		"/>
		<polygon fill="none" points="23.5,-9 -6.5,-9 -6.5,13 23.5,13 		"/>
		<text transform="matrix(1 0 0 -1.01 -6.5 4.208)"><tspan x="0" y="0" fill="#B3B4B4" font-family="'MicrosoftYaHei'" font-size="11" letter-spacing="2">不计</tspan><tspan x="0" y="13.1" fill="#B3B4B4" font-family="'MicrosoftYaHei'" font-size="11" letter-spacing="2">免赔</tspan></text>
	</g>
</symbol>
<symbol  id="car2" viewBox="-61 -20 122 39.9">
	<polygon opacity="0.2" fill="#333333" points="61,-20 -61,-20 -47,-8.2 46,-8.2 	"/>
	<path fill="#FFEE00" d="M50.4,3c-2.3,2-23.9,4.1-23.9,4.1S15,18.6,13.4,19.4c-1.6,0.8-33.6,0.4-34.9,0
		c-7.3-2.3-16.4-14.4-16.4-14.4s-3.4,0-4.6,0s-6.3-1-6.7-2.3c-0.8-2.5,0-13.4,0-13.4H51.5C51.5-10.6,51.3,2.2,50.4,3z M-4.6,7.1
		l-27.9-1c0,0,7.3,7.4,11,9s16.9,1,16.9,1V7.1z M-1.4,7.1v9.4h14.6l9.5-9.4H-1.4z"/>
	<path fill="#FFFFFF" stroke="#4D4D4D" stroke-width="6" stroke-miterlimit="10" d="M-25.1-8.9c0-3.4-2.8-6.2-6.2-6.2
		s-6.2,2.8-6.2,6.2c0,3.4,2.8,6.2,6.2,6.2S-25.1-5.5-25.1-8.9z"/>
	<path fill="#FFFFFF" stroke="#4D4D4D" stroke-width="6" stroke-miterlimit="10" d="M32.9-8.9c0-3.4-2.8-6.2-6.2-6.2
		s-6.2,2.8-6.2,6.2c0,3.4,2.8,6.2,6.2,6.2S32.9-5.5,32.9-8.9z"/>
</symbol>
<symbol  id="check_box_off" viewBox="-13.4 -13.8 23 23">
	<g>
		<path fill="none" stroke="#717171" stroke-miterlimit="10" d="M9.1-2.3c0-6.1-4.9-11-11-11s-11,4.9-11,11s4.9,11,11,11
			S9.1,3.7,9.1-2.3z"/>
	</g>
</symbol>
<symbol  id="check_box_on" viewBox="-14.9 -15.3 26 26">
	<g>
		<path fill="#046EB6" d="M11.1-2.3c0-7.2-5.8-13-13-13s-13,5.8-13,13s5.8,13,13,13S11.1,4.8,11.1-2.3z"/>
		<polyline fill="none" stroke="#FFFFFF" stroke-miterlimit="10" points="-9.9,-3.3 -4.1,-8.3 4.9,2.7 		"/>
	</g>
</symbol>
<symbol  id="icon-custoner" viewBox="-15.5 -16.8 31 33.6">
	<g>
		<path fill="#046EB6" d="M0,13.8c5.4,0,9.8-4.4,9.8-9.8c0-5.4-4.4-9.8-9.8-9.8S-9.8-1.5-9.8,4C-9.8,9.4-5.4,13.8,0,13.8 M0,16.8
			C-7.1,16.8-12.8,11-12.8,4C-12.8-3.1-7.1-8.9,0-8.9C7.1-8.9,12.8-3.1,12.8,4C12.8,11,7.1,16.8,0,16.8L0,16.8z"/>
	</g>
	<path fill="none" stroke="#046EB6" stroke-width="3" stroke-miterlimit="10" d="M-14-16.8c0,5.2,6.3,9.3,14,9.3
		c7.7,0,14-4.2,14-9.3"/>
</symbol>
<symbol  id="icon-next-dark" viewBox="-16.1 -16 32 32">
	
		<use xlink:href="#ph-32"  width="32" height="32" id="XMLID_30_" x="-16" y="-16" transform="matrix(1 0 0 1 -0.1345 0)" overflow="visible"/>
	<path fill="#717171" d="M6.9,1.6l-8.9-9.2c-0.5-0.5-1.2-0.5-1.7,0c-0.5,0.5-0.5,1.3,0,1.8l7.2,7.4L-3.8,9c-0.5,0.5-0.5,1.3,0,1.8
		c0.5,0.5,1.2,0.5,1.7,0L6.9,1.6L6.9,1.6z M6.9,1.6"/>
</symbol>
<symbol  id="icon-vehicle" viewBox="-96.5 -80.9 193 161.8">
	<g>
		<path id="wheal2_3_" fill="#046EB6" d="M-57-30.6c-9.1,0-16.5,7.4-16.5,16.5c0,9.1,7.4,16.5,16.5,16.5c9.1,0,16.5-7.4,16.5-16.5
			C-40.4-23.2-47.8-30.6-57-30.6z M-57-6.1c-4.4,0-7.9-3.6-7.9-7.9c0-4.4,3.6-7.9,7.9-7.9c4.4,0,7.9,3.6,7.9,7.9
			C-49-9.7-52.6-6.1-57-6.1z"/>
		<path id="wheal1_3_" fill="#046EB6" d="M56.6-30.6c-9.1,0-16.5,7.4-16.5,16.5c0,9.1,7.4,16.5,16.5,16.5S73.2-4.9,73.2-14
			C73.2-23.2,65.7-30.6,56.6-30.6L56.6-30.6z M56.6-6.1c-4.4,0-7.9-3.6-7.9-7.9c0-4.4,3.6-7.9,7.9-7.9c4.4,0,7.9,3.6,7.9,7.9
			C64.5-9.7,61-6.1,56.6-6.1z"/>
		<path id="body_3_" fill="#046EB6" d="M68.5,27.4v23.3c0,16.6-13.5,30.1-30.1,30.1h-80.5c-16.6,0-30.1-13.5-30.1-30.1V26.9
			c-13.8-2.8-24.2-15-24.2-29.6v-25.7c0-14.7,10.6-27,24.5-29.6v-6.6c0-9,7.3-16.4,16.4-16.4h0.9c9,0,16.4,7.3,16.4,16.4v6.1h76.4
			v-6.1c0-9,7.3-16.4,16.4-16.4h0.9c9,0,16.4,7.3,16.4,16.4v6.6c14.1,2.5,24.8,14.9,24.8,29.7v25.7C96.5,13.3,84.1,26.3,68.5,27.4z
			 M-60.2,50.8c0,10,8.1,18.1,18.1,18.1h80.5c10,0,18.1-8.1,18.1-18.1V27.5H44.3c-0.5,13.3-11.5,23.9-25,23.9S-5,40.8-5.6,27.5
			h-54.7V50.8z M35.7,27.5H3.1c0.5,8.5,7.6,15.3,16.3,15.3C28,42.9,35.1,36.1,35.7,27.5z M-50.4-64.6c0-2.4-1.9-4.3-4.3-4.3h-0.9
			c-2.4,0-4.3,1.9-4.3,4.3v6.1h9.5V-64.6z M59.6-64.6c0-2.4-1.9-4.3-4.3-4.3h-0.9c-2.4,0-4.3,1.9-4.3,4.3v6.1h9.5V-64.6z M84.4-28.3
			c0-10-8.1-18.1-18.1-18.1H-66.4c-10,0-18.1,8.1-18.1,18.1v25.7c0,10,8.1,18.1,18.1,18.1H66.4c10,0,18.1-8.1,18.1-18.1V-28.3z"/>
	</g>
</symbol>
<symbol  id="mountain" viewBox="-144.3 -121.5 283 243">
	<polygon fill="#0F738C" points="-0.1,121.5 -144.3,-87 -0.1,-121.5 	"/>
	<polygon fill="#CCCBBD" points="-0.1,121.5 -45.3,55.9 -32.3,60.9 -29.3,44.9 -12.3,54.9 0.1,31.7 	"/>
	<polygon fill="#26A8E2" points="0.1,121.5 138.7,-87 0.1,-121.5 	"/>
	<polygon opacity="0.85" fill="#FFFFFF" points="0.1,121.5 44.7,53.9 28.7,59.9 25.7,41.9 10.7,54.9 0.1,31.7 	"/>
</symbol>
<symbol  id="ph-32" viewBox="-16 -16 32 32">
	<polygon opacity="0" fill="#FFFFFF" points="16,-16 -16,-16 -16,16 16,16 	"/>
	<polygon display="none" fill="none" points="-16,16 16,16 16,-16 -16,-16 	"/>
</symbol>
<symbol  id="主" viewBox="-11.5 -9.5 23 19">
	<g>
		<path fill="#0FAB67" d="M4.5,8.5c0.6,0,1-0.4,1-1v-14c0-0.6-0.4-1-1-1h-14c-0.6,0-1,0.4-1,1v14c0,0.6,0.4,1,1,1H4.5 M4.5,9.5h-14
			c-1.1,0-2-0.9-2-2v-14c0-1.1,0.9-2,2-2h14c1.1,0,2,0.9,2,2v14C6.5,8.6,5.6,9.5,4.5,9.5L4.5,9.5z"/>
	</g>
	<polygon fill="none" points="11.5,-9.5 -8.5,-9.5 -8.5,5.5 11.5,5.5 	"/>
	<text transform="matrix(1 0 0 -1 -8.5 -3.2925)" fill="#0FAB67" font-family="'MicrosoftYaHei'" font-size="11">主</text>
</symbol>
<symbol  id="展开" viewBox="-7.6 -11.3 15.2 22.6">
	<polyline fill="none" stroke="#EDEDEE" stroke-width="2" stroke-miterlimit="10" points="-7,10.5 6,-0.5 -7,-10.5 	"/>
</symbol>
<symbol  id="开" viewBox="-23 -12 46 23">
	<g>
		<g>
			<path fill="#00903A" d="M22-0.5C22-6.3,17.3-11,11.5-11h-24C-18.3-11-23-6.3-23-0.5v1C-23,6.3-18.3,11-12.5,11h24
				C17.3,11,22,6.3,22,0.5V-0.5z"/>
			<path fill="#9D9D9E" d="M12,10c5.5,0,10-4,10-9.5v-1C22-6,17.5-11,12-11h-24c-5.5,0-10,5-10,10.5v1C-22,6-17.5,10-12,10H12
				 M12,11h-24c-6.1,0-11-4.4-11-10.5v-1c0-6,4.9-11.5,11-11.5h24c6.1,0,11,5.5,11,11.5v1C23,6.6,18.1,11,12,11L12,11z"/>
		</g>
		<path fill="#FFFFFF" d="M21-0.5c0-5-4-9-9-9s-9,4-9,9s4,9,9,9S21,4.5,21-0.5z"/>
	</g>
</symbol>
<symbol  id="附" viewBox="-11.5 -9.5 23 19">
	<g>
		<path fill="#DE9713" d="M4.5,8.5c0.6,0,1-0.4,1-1v-14c0-0.6-0.4-1-1-1h-14c-0.6,0-1,0.4-1,1v14c0,0.6,0.4,1,1,1H4.5 M4.5,9.5h-14
			c-1.1,0-2-0.9-2-2v-14c0-1.1,0.9-2,2-2h14c1.1,0,2,0.9,2,2v14C6.5,8.6,5.6,9.5,4.5,9.5L4.5,9.5z"/>
	</g>
	<polygon fill="none" points="11.5,-9.5 -8.5,-9.5 -8.5,5.5 11.5,5.5 	"/>
	<text transform="matrix(1 0 0 -1 -8.5 -3.2925)" fill="#DE9713" font-family="'MicrosoftYaHei'" font-size="11">附</text>
</symbol>
<g id="layer">
</g>
<g id="guides">
</g>
<g id="查询-有车牌">
	<g id="repeat">
		<g>
			<g>
				<g>
					<defs>
						<rect id="SVGID_17_" x="3" y="1" width="384" height="192"/>
					</defs>
					<clipPath id="SVGID_2_">
						<use xlink:href="#SVGID_17_"  overflow="visible"/>
					</clipPath>
				</g>
			</g>
			<g>
				<g>
					<defs>
						<rect id="SVGID_19_" x="3" y="1" width="384" height="192"/>
					</defs>
					<clipPath id="SVGID_4_">
						<use xlink:href="#SVGID_19_"  overflow="visible"/>
					</clipPath>
					<rect y="-5" clip-path="url(#SVGID_4_)" fill="#02BB77" width="393" height="200"/>
					
						<radialGradient id="SVGID_5_" cx="298.2648" cy="174.9414" r="155" gradientTransform="matrix(1.1484 0 0 1.1484 -138 -17.0645)" gradientUnits="userSpaceOnUse">
						<stop  offset="0.3153" style="stop-color:#B0FFB5"/>
						<stop  offset="1" style="stop-color:#79FF6A;stop-opacity:0"/>
					</radialGradient>
					<circle clip-path="url(#SVGID_4_)" fill="url(#SVGID_5_)" cx="204.5" cy="183.8" r="178"/>
					<g clip-path="url(#SVGID_4_)">
						<path id="cloud_48_" opacity="0.88" fill-rule="evenodd" clip-rule="evenodd" fill="#FFFFFF" d="M160.4,37.3
							c-1.2,0-2.3,0.2-3.4,0.5c-0.7-2.8-3.5-4.9-6.9-4.9c-1.8,0-3.5,0.6-4.7,1.6C144.1,27.9,137.7,23,130,23
							c-8.6,0-15.6,6.1-15.6,13.7c0,1,0.1,2,0.4,3c-0.2,0-0.3,0-0.5,0c-5.1,0-9.2,3.6-9.2,8.1c0,4.5,4.1,8.1,9.2,8.1
							c4.6,0,40.3,0,46.2,0c5.9,0,10.6-4.2,10.6-9.3C171,41.5,166.2,37.3,160.4,37.3z"/>
						<path id="cloud_47_" opacity="0.57" fill-rule="evenodd" clip-rule="evenodd" fill="#FFFFFF" d="M305.6,85.2
							c1.3,0,2.5,0.2,3.6,0.5c0.7-3,3.7-5.2,7.4-5.2c1.9,0,3.7,0.6,5,1.7c1.3-6.9,8.2-12.1,16.5-12.1c9.3,0,16.8,6.5,16.8,14.6
							c0,1.1-0.1,2.2-0.4,3.2c0.2,0,0.4,0,0.5,0c5.5,0,9.9,3.8,9.9,8.6c0,4.7-4.4,8.6-9.9,8.6c-4.9,0-43.2,0-49.5,0
							c-6.3,0-11.4-4.4-11.4-9.9C294.2,89.6,299.3,85.2,305.6,85.2z"/>
						
							<use xlink:href="#mountain"  width="283" height="243" id="XMLID_209_" x="-144.3" y="-121.5" transform="matrix(0.8005 0 0 -0.9585 78.5772 139.8855)" overflow="visible"/>
						
							<use xlink:href="#mountain"  width="283" height="243" x="-144.3" y="-121.5" transform="matrix(0.8005 0 0 -0.9585 209.9902 188.4738)" overflow="visible"/>
						<g id="bridge_23_">
							<linearGradient id="SVGID_6_" gradientUnits="userSpaceOnUse" x1="296.0643" y1="177" x2="296.0643" y2="162.8657">
								<stop  offset="0" style="stop-color:#B5B4B4"/>
								<stop  offset="1" style="stop-color:#000000"/>
							</linearGradient>
							<rect x="-1" y="162.9" fill="url(#SVGID_6_)" width="594.1" height="14.1"/>
							<rect x="-1" y="151.9" fill="#D0D2D3" width="594.1" height="14.1"/>
							<rect x="-1" y="162.5" fill="#A6A8AB" width="594.1" height="8.5"/>
							<rect x="-1" y="162.2" fill="#FFFFFF" width="594.1" height="2.8"/>
						</g>
						
							<use xlink:href="#car2"  width="122" height="39.9" id="XMLID_208_" x="-61" y="-20" transform="matrix(-0.6805 0 0 -0.6453 299.5 148.1206)" overflow="visible"/>
						
							<use xlink:href="#mountain"  width="283" height="243" x="-144.3" y="-121.5" transform="matrix(0.6466 0 0 -0.6466 147.321 197.1865)" overflow="visible"/>
					</g>
				</g>
			</g>
			<g>
				<g>
					<defs>
						<rect id="SVGID_23_" x="3" y="1" width="384" height="192"/>
					</defs>
					<clipPath id="SVGID_8_">
						<use xlink:href="#SVGID_23_"  overflow="visible"/>
					</clipPath>
				</g>
			</g>
		</g>
	</g>
</g>
<g id="查询_xFF0D_无结果">
</g>
<g id="查询-无车牌">
</g>
<g id="调整险别">
</g>
<g id="调整险别-试算">
</g>
<g id="续保确认-完整">
</g>
<g id="恭喜方案">
</g>
<g id="Layer_22" display="none">
</g>
<g id="告知确定">
</g>
<g id="投保信息确认成功">
</g>
</svg>
