<?xml version="1.0" encoding="utf-8"?>
<!-- Generator: Adobe Illustrator 17.0.0, SVG Export Plug-In . SVG Version: 6.00 Build 0)  -->
<!DOCTYPE svg PUBLIC "-//W3C//DTD SVG 1.1//EN" "http://www.w3.org/Graphics/SVG/1.1/DTD/svg11.dtd">
<svg version="1.1" xmlns="http://www.w3.org/2000/svg" xmlns:xlink="http://www.w3.org/1999/xlink" x="0px" y="0px" width="360px"
	 height="360px" viewBox="0 0 360 360" enable-background="new 0 0 360 360" xml:space="preserve">
<symbol  id="CDW" viewBox="-23.5 -27 59 55">
	<g>
		<g>
			<polygon fill="#1FA939" points="35.5,-27 -23.5,-27 -23.5,28 35.5,28 			"/>
		</g>
		<polyline display="none" fill="none" stroke="#FFFFFF" stroke-miterlimit="10" points="19.5,19 22.8,15.7 29.5,23.4 		"/>
		<polygon fill="none" points="23.5,-9 -6.5,-9 -6.5,13 23.5,13 		"/>
		<text transform="matrix(1 0 0 -1.01 -6.5 4.208)"><tspan x="0" y="0" fill="#FFFFFF" font-family="'MicrosoftYaHei'" font-size="11" letter-spacing="2">不计</tspan><tspan x="0" y="13.1" fill="#FFFFFF" font-family="'MicrosoftYaHei'" font-size="11" letter-spacing="2">免赔</tspan></text>
	</g>
</symbol>
<symbol  id="CDW_2" viewBox="-23.5 -27 59 55">
	<g>
		<g>
			<polygon fill="#F6F6F6" points="35.5,-27 -23.5,-27 -23.5,28 35.5,28 			"/>
		</g>
		<polyline display="none" fill="none" stroke="#FFFFFF" stroke-miterlimit="10" points="19.5,19 22.8,15.7 29.5,23.4 		"/>
		<polygon fill="none" points="23.5,-9 -6.5,-9 -6.5,13 23.5,13 		"/>
		<text transform="matrix(1 0 0 -1.01 -6.5 4.208)"><tspan x="0" y="0" fill="#B3B4B4" font-family="'MicrosoftYaHei'" font-size="11" letter-spacing="2">不计</tspan><tspan x="0" y="13.1" fill="#B3B4B4" font-family="'MicrosoftYaHei'" font-size="11" letter-spacing="2">免赔</tspan></text>
	</g>
</symbol>
<symbol  id="check_box_off" viewBox="-13.4 -13.8 23 23">
	<g>
		<path fill="none" stroke="#717171" stroke-miterlimit="10" d="M9.1-2.3c0-6.1-4.9-11-11-11s-11,4.9-11,11s4.9,11,11,11
			S9.1,3.7,9.1-2.3z"/>
	</g>
</symbol>
<symbol  id="check_box_on" viewBox="-14.9 -15.3 26 26">
	<g>
		<path fill="#046EB6" d="M11.1-2.3c0-7.2-5.8-13-13-13s-13,5.8-13,13s5.8,13,13,13S11.1,4.8,11.1-2.3z"/>
		<polyline fill="none" stroke="#FFFFFF" stroke-miterlimit="10" points="-9.9,-3.3 -4.1,-8.3 4.9,2.7 		"/>
	</g>
</symbol>
<symbol  id="icon-custoner" viewBox="-15.5 -16.8 31 33.6">
	<g>
		<path fill="#046EB6" d="M0,13.8c5.4,0,9.8-4.4,9.8-9.8c0-5.4-4.4-9.8-9.8-9.8S-9.8-1.5-9.8,4C-9.8,9.4-5.4,13.8,0,13.8 M0,16.8
			C-7.1,16.8-12.8,11-12.8,4C-12.8-3.1-7.1-8.9,0-8.9C7.1-8.9,12.8-3.1,12.8,4C12.8,11,7.1,16.8,0,16.8L0,16.8z"/>
	</g>
	<path fill="none" stroke="#046EB6" stroke-width="3" stroke-miterlimit="10" d="M-14-16.8c0,5.2,6.3,9.3,14,9.3
		c7.7,0,14-4.2,14-9.3"/>
</symbol>
<symbol  id="icon-next-dark" viewBox="-16.1 -16 32 32">
	
		<use xlink:href="#ph-32"  width="32" height="32" id="XMLID_30_" x="-16" y="-16" transform="matrix(1 0 0 1 -0.1345 0)" overflow="visible"/>
	<path fill="#717171" d="M6.9,1.6l-8.9-9.2c-0.5-0.5-1.2-0.5-1.7,0c-0.5,0.5-0.5,1.3,0,1.8l7.2,7.4L-3.8,9c-0.5,0.5-0.5,1.3,0,1.8
		c0.5,0.5,1.2,0.5,1.7,0L6.9,1.6L6.9,1.6z M6.9,1.6"/>
</symbol>
<symbol  id="icon-vehicle" viewBox="-96.5 -80.9 193 161.8">
	<g>
		<path id="wheal2_3_" fill="#046EB6" d="M-57-30.6c-9.1,0-16.5,7.4-16.5,16.5c0,9.1,7.4,16.5,16.5,16.5c9.1,0,16.5-7.4,16.5-16.5
			C-40.4-23.2-47.8-30.6-57-30.6z M-57-6.1c-4.4,0-7.9-3.6-7.9-7.9c0-4.4,3.6-7.9,7.9-7.9c4.4,0,7.9,3.6,7.9,7.9
			C-49-9.7-52.6-6.1-57-6.1z"/>
		<path id="wheal1_3_" fill="#046EB6" d="M56.6-30.6c-9.1,0-16.5,7.4-16.5,16.5c0,9.1,7.4,16.5,16.5,16.5S73.2-4.9,73.2-14
			C73.2-23.2,65.7-30.6,56.6-30.6L56.6-30.6z M56.6-6.1c-4.4,0-7.9-3.6-7.9-7.9c0-4.4,3.6-7.9,7.9-7.9c4.4,0,7.9,3.6,7.9,7.9
			C64.5-9.7,61-6.1,56.6-6.1z"/>
		<path id="body_3_" fill="#046EB6" d="M68.5,27.4v23.3c0,16.6-13.5,30.1-30.1,30.1h-80.5c-16.6,0-30.1-13.5-30.1-30.1V26.9
			c-13.8-2.8-24.2-15-24.2-29.6v-25.7c0-14.7,10.6-27,24.5-29.6v-6.6c0-9,7.3-16.4,16.4-16.4h0.9c9,0,16.4,7.3,16.4,16.4v6.1h76.4
			v-6.1c0-9,7.3-16.4,16.4-16.4h0.9c9,0,16.4,7.3,16.4,16.4v6.6c14.1,2.5,24.8,14.9,24.8,29.7v25.7C96.5,13.3,84.1,26.3,68.5,27.4z
			 M-60.2,50.8c0,10,8.1,18.1,18.1,18.1h80.5c10,0,18.1-8.1,18.1-18.1V27.5H44.3c-0.5,13.3-11.5,23.9-25,23.9S-5,40.8-5.6,27.5
			h-54.7V50.8z M35.7,27.5H3.1c0.5,8.5,7.6,15.3,16.3,15.3C28,42.9,35.1,36.1,35.7,27.5z M-50.4-64.6c0-2.4-1.9-4.3-4.3-4.3h-0.9
			c-2.4,0-4.3,1.9-4.3,4.3v6.1h9.5V-64.6z M59.6-64.6c0-2.4-1.9-4.3-4.3-4.3h-0.9c-2.4,0-4.3,1.9-4.3,4.3v6.1h9.5V-64.6z M84.4-28.3
			c0-10-8.1-18.1-18.1-18.1H-66.4c-10,0-18.1,8.1-18.1,18.1v25.7c0,10,8.1,18.1,18.1,18.1H66.4c10,0,18.1-8.1,18.1-18.1V-28.3z"/>
	</g>
</symbol>
<symbol  id="ph-32" viewBox="-16 -16 32 32">
	<polygon opacity="0" fill="#FFFFFF" points="16,-16 -16,-16 -16,16 16,16 	"/>
	<polygon display="none" fill="none" points="-16,16 16,16 16,-16 -16,-16 	"/>
</symbol>
<symbol  id="主" viewBox="-11.5 -9.5 23 19">
	<g>
		<path fill="#0FAB67" d="M4.5,8.5c0.6,0,1-0.4,1-1v-14c0-0.6-0.4-1-1-1h-14c-0.6,0-1,0.4-1,1v14c0,0.6,0.4,1,1,1H4.5 M4.5,9.5h-14
			c-1.1,0-2-0.9-2-2v-14c0-1.1,0.9-2,2-2h14c1.1,0,2,0.9,2,2v14C6.5,8.6,5.6,9.5,4.5,9.5L4.5,9.5z"/>
	</g>
	<polygon fill="none" points="11.5,-9.5 -8.5,-9.5 -8.5,5.5 11.5,5.5 	"/>
	<text transform="matrix(1 0 0 -1 -8.5 -3.2925)" fill="#0FAB67" font-family="'MicrosoftYaHei'" font-size="11">主</text>
</symbol>
<symbol  id="展开" viewBox="-7.6 -11.3 15.2 22.6">
	<polyline fill="none" stroke="#EDEDEE" stroke-width="2" stroke-miterlimit="10" points="-7,10.5 6,-0.5 -7,-10.5 	"/>
</symbol>
<symbol  id="开" viewBox="-23 -12 46 23">
	<g>
		<g>
			<path fill="#00903A" d="M22-0.5C22-6.3,17.3-11,11.5-11h-24C-18.3-11-23-6.3-23-0.5v1C-23,6.3-18.3,11-12.5,11h24
				C17.3,11,22,6.3,22,0.5V-0.5z"/>
			<path fill="#9D9D9E" d="M12,10c5.5,0,10-4,10-9.5v-1C22-6,17.5-11,12-11h-24c-5.5,0-10,5-10,10.5v1C-22,6-17.5,10-12,10H12
				 M12,11h-24c-6.1,0-11-4.4-11-10.5v-1c0-6,4.9-11.5,11-11.5h24c6.1,0,11,5.5,11,11.5v1C23,6.6,18.1,11,12,11L12,11z"/>
		</g>
		<path fill="#FFFFFF" d="M21-0.5c0-5-4-9-9-9s-9,4-9,9s4,9,9,9S21,4.5,21-0.5z"/>
	</g>
</symbol>
<symbol  id="附" viewBox="-11.5 -9.5 23 19">
	<g>
		<path fill="#DE9713" d="M4.5,8.5c0.6,0,1-0.4,1-1v-14c0-0.6-0.4-1-1-1h-14c-0.6,0-1,0.4-1,1v14c0,0.6,0.4,1,1,1H4.5 M4.5,9.5h-14
			c-1.1,0-2-0.9-2-2v-14c0-1.1,0.9-2,2-2h14c1.1,0,2,0.9,2,2v14C6.5,8.6,5.6,9.5,4.5,9.5L4.5,9.5z"/>
	</g>
	<polygon fill="none" points="11.5,-9.5 -8.5,-9.5 -8.5,5.5 11.5,5.5 	"/>
	<text transform="matrix(1 0 0 -1 -8.5 -3.2925)" fill="#DE9713" font-family="'MicrosoftYaHei'" font-size="11">附</text>
</symbol>
<g id="layer">
</g>
<g id="guides">
</g>
<g id="查询-有车牌">
</g>
<g id="查询_xFF0D_无结果">
</g>
<g id="查询-无车牌">
</g>
<g id="调整险别">
</g>
<g id="调整险别-试算">
</g>
<g id="续保确认-完整">
</g>
<g id="恭喜方案">
	<g>
		<g>
			<g>
				
					<linearGradient id="SVGID_2_" gradientUnits="userSpaceOnUse" x1="180.5" y1="181.4147" x2="180.5" y2="1.897" gradientTransform="matrix(0.9397 0.342 -0.342 0.9397 75.0143 -50.427)">
					<stop  offset="0" style="stop-color:#FF2727;stop-opacity:0.6"/>
					<stop  offset="0.512" style="stop-color:#F24C28;stop-opacity:0.6669"/>
					<stop  offset="1" style="stop-color:#ED2828;stop-opacity:0"/>
				</linearGradient>
				<path fill="url(#SVGID_2_)" d="M184.8,182.6c0,0,4-14.9,5.6-19.8c2.1-6.4,0.6-12.2,3.4-18.2c3-6.4,4.2-9.6,6.4-15.5
					c2.2-5.9-1-10.5,1.2-19c2.1-8,3.9-7.5,5.5-15c1.3-6.1-3.2-11.3,0.8-20c2.9-6.3,8.5-7.1,11.5-16c2.3-6.8-3.3-13.1-1.1-21.4
					s18.8-27.2,18.8-27.2l21.9,8.8c0,0-17,17.5-19.3,26.2c-2.3,8.6,0.4,11.8-2.2,19.4c-3.4,10.1-10.2,12.5-12,17.5
					c-2.8,7.8,0.9,8-2.4,17.8c-3,8.9-7.5,11.6-9.2,16.1c-2.3,6.4-0.6,8.5-3.3,15.8c-3,8.2-5.3,10-7.2,15.2
					c-2.3,6.4-3.4,9.1-6.4,15.5C193.4,169.9,184.8,182.6,184.8,182.6z"/>
			</g>
		</g>
		<g>
			<g>
				
					<linearGradient id="SVGID_4_" gradientUnits="userSpaceOnUse" x1="180.5" y1="181.4147" x2="180.5" y2="1.897" gradientTransform="matrix(0.766 0.6428 -0.6428 0.766 162.7517 -72.1565)">
					<stop  offset="0" style="stop-color:#FF2727;stop-opacity:0.6"/>
					<stop  offset="0.512" style="stop-color:#F24C28;stop-opacity:0.6669"/>
					<stop  offset="1" style="stop-color:#ED2828;stop-opacity:0"/>
				</linearGradient>
				<path fill="url(#SVGID_4_)" d="M186.2,184.3c0,0,8.8-12.7,12-16.7c4.2-5.3,4.7-11.3,9.4-15.9c5-5,7.3-7.5,11.3-12.3
					s2.6-10.2,7.7-17.4c4.7-6.8,6.3-5.7,10.3-12.2c3.3-5.3,0.9-11.7,7.6-18.5c4.8-4.9,10.5-3.8,16.3-11.1c4.4-5.6,1.4-13.4,6.3-20.5
					S294,40.4,294,40.4l17.6,15.7c0,0-22,10.7-27.1,18s-3.7,11.2-8.7,17.5c-6.7,8.3-13.9,8.2-17.3,12.3c-5.3,6.3-1.9,7.8-8.3,15.9
					c-5.8,7.3-11,8.3-14.1,12c-4.4,5.2-3.5,7.8-8.5,13.7c-5.6,6.7-8.4,7.6-12,11.8c-4.4,5.2-6.3,7.4-11.3,12.4
					C198.7,175.3,186.2,184.3,186.2,184.3z"/>
			</g>
		</g>
		<g>
			<g>
				
					<linearGradient id="SVGID_5_" gradientUnits="userSpaceOnUse" x1="180.5" y1="181.4147" x2="180.5" y2="1.897" gradientTransform="matrix(0.5 0.866 -0.866 0.5 252.6298 -62.5676)">
					<stop  offset="0" style="stop-color:#FF2727;stop-opacity:0.6"/>
					<stop  offset="0.512" style="stop-color:#F24C28;stop-opacity:0.6669"/>
					<stop  offset="1" style="stop-color:#ED2828;stop-opacity:0"/>
				</linearGradient>
				<path fill="url(#SVGID_5_)" d="M186.9,186.5c0,0,12.6-8.9,17-11.6c5.7-3.5,8.3-9,14.3-11.8c6.4-3,9.4-4.6,14.9-7.7
					s6-8.7,13.1-13.7c6.8-4.7,7.8-3.2,13.8-8c4.9-3.9,4.8-10.7,13.4-14.8c6.2-3,11.1,0,19.1-4.9c6.1-3.7,5.9-12.1,12.9-17.1
					c7-5,31.9-8.7,31.9-8.7l11.1,20.8c0,0-24.3,2.5-31.6,7.6s-7.3,9.3-14.2,13.5c-9.1,5.5-15.8,3-20.4,5.7
					c-7.1,4.1-4.5,6.7-13.2,12.1c-8,4.9-13.2,4.1-17.4,6.4c-5.9,3.4-5.9,6.1-12.7,10c-7.6,4.4-10.5,4.2-15.3,7
					c-5.9,3.4-8.4,4.8-14.8,7.8C201.7,182.3,186.9,186.5,186.9,186.5z"/>
			</g>
		</g>
		<g>
			<g>
				
					<linearGradient id="SVGID_6_" gradientUnits="userSpaceOnUse" x1="180.5" y1="181.4147" x2="180.5" y2="1.897" gradientTransform="matrix(0.1736 0.9848 -0.9848 0.1736 333.808 -22.8168)">
					<stop  offset="0" style="stop-color:#FF2727;stop-opacity:0.6"/>
					<stop  offset="0.512" style="stop-color:#F24C28;stop-opacity:0.6669"/>
					<stop  offset="1" style="stop-color:#ED2828;stop-opacity:0"/>
				</linearGradient>
				<path fill="url(#SVGID_6_)" d="M186.9,188.7c0,0,14.9-4,20-5.1c6.6-1.4,10.9-5.6,17.5-6.2c7-0.6,10.4-1.1,16.6-2.2
					c6.2-1.1,8.6-6.1,17.1-8.4c8-2.1,8.5-0.4,15.7-2.8c5.9-2,8.2-8.4,17.7-9.3c6.9-0.7,10.5,3.8,19.7,1.9c7-1.4,9.7-9.4,18-11.7
					c8.3-2.3,32.9,2.7,32.9,2.7l3.3,23.4c0,0-23.7-6-32.3-3.6c-8.6,2.3-10,6.2-17.9,7.8c-10.4,2.1-15.9-2.6-21.2-1.7
					c-8.1,1.4-6.5,4.8-16.6,6.8c-9.2,1.9-13.8-0.7-18.5,0.1c-6.7,1.2-7.7,3.7-15.3,5.1c-8.6,1.5-11.3,0.4-16.8,1.4
					c-6.7,1.2-9.6,1.7-16.6,2.2C202.2,189.9,186.9,188.7,186.9,188.7z"/>
			</g>
		</g>
		<g>
			<g>
				
					<linearGradient id="SVGID_8_" gradientUnits="userSpaceOnUse" x1="180.5" y1="181.4147" x2="180.5" y2="1.897" gradientTransform="matrix(-0.1736 0.9848 -0.9848 -0.1736 396.495 42.3012)">
					<stop  offset="0" style="stop-color:#FF2727;stop-opacity:0.6"/>
					<stop  offset="0.512" style="stop-color:#F24C28;stop-opacity:0.6669"/>
					<stop  offset="1" style="stop-color:#ED2828;stop-opacity:0"/>
				</linearGradient>
				<path fill="url(#SVGID_8_)" d="M186.1,190.8c0,0,15.4,1.3,20.5,2.1c6.6,1,12.1-1.5,18.5,0.2c6.8,1.8,10.1,2.5,16.3,3.7
					c6.2,1.1,10.2-2.8,18.9-2.1c8.2,0.7,8.1,2.6,15.7,2.8c6.3,0.2,10.6-5.1,19.8-2.7c6.7,1.7,8.5,7.2,17.8,8.5
					c7.1,1.1,12.3-5.5,20.9-4.8c8.6,0.7,30,13.8,30,13.8l-4.8,23.1c0,0-20.2-13.7-29.1-14.5s-11.5,2.4-19.5,1.2
					c-10.5-1.6-14.1-7.9-19.3-8.8c-8.1-1.4-7.7,2.3-17.9,0.8c-9.3-1.4-12.7-5.4-17.4-6.2c-6.7-1.2-8.5,0.9-16.1-0.5
					c-8.6-1.5-10.8-3.5-16.2-4.5c-6.7-1.2-9.6-1.7-16.4-3.6C200.1,197.2,186.1,190.8,186.1,190.8z"/>
			</g>
		</g>
		<g>
			<g>
				
					<linearGradient id="SVGID_10_" gradientUnits="userSpaceOnUse" x1="180.5" y1="181.4147" x2="180.5" y2="1.897" gradientTransform="matrix(-0.5 0.866 -0.866 -0.5 433.1298 124.9324)">
					<stop  offset="0" style="stop-color:#FF2727;stop-opacity:0.6"/>
					<stop  offset="0.512" style="stop-color:#F24C28;stop-opacity:0.6669"/>
					<stop  offset="1" style="stop-color:#ED2828;stop-opacity:0"/>
				</linearGradient>
				<path fill="url(#SVGID_10_)" d="M184.6,192.5c0,0,14,6.5,18.5,9c5.9,3.2,11.9,2.7,17.3,6.5c5.8,4,8.7,5.8,14.1,9
					c5.4,3.2,10.5,0.8,18.5,4.5c7.5,3.5,6.7,5.2,13.8,8c5.8,2.3,11.7-1.2,19.5,4.2c5.7,3.9,5.6,9.6,13.8,14.1
					c6.3,3.4,13.5-0.9,21.3,2.6s23.5,23.2,23.5,23.2l-12.4,20c0,0-14.3-19.8-22.4-23.5c-8.1-3.8-11.7-1.7-18.8-5.6
					c-9.3-5.1-10.5-12.2-15.1-14.9c-7.1-4.1-8-0.5-17.1-5.4c-8.3-4.5-10.1-9.4-14.3-11.8c-5.9-3.4-8.3-2.1-15-6
					c-7.6-4.4-8.9-7-13.7-9.7c-5.9-3.4-8.4-4.9-14.1-9C195.6,203.3,184.6,192.5,184.6,192.5z"/>
			</g>
		</g>
		<g>
			<g>
				
					<linearGradient id="SVGID_12_" gradientUnits="userSpaceOnUse" x1="180.5" y1="181.4147" x2="180.5" y2="1.897" gradientTransform="matrix(-0.766 0.6428 -0.6428 -0.766 439.2937 215.1102)">
					<stop  offset="0" style="stop-color:#FF2727;stop-opacity:0.6"/>
					<stop  offset="0.512" style="stop-color:#F24C28;stop-opacity:0.6669"/>
					<stop  offset="1" style="stop-color:#ED2828;stop-opacity:0"/>
				</linearGradient>
				<path fill="url(#SVGID_12_)" d="M182.6,193.6c0,0,10.9,10.9,14.4,14.8c4.5,5,10.3,6.6,14.1,12c4,5.8,6.2,8.4,10.2,13.3
					s9.6,4.4,15.8,10.6c5.8,5.8,4.6,7.2,10.3,12.2c4.7,4.2,11.4,2.9,16.9,10.7c4,5.6,1.9,11,8.1,18c4.7,5.4,13,3.7,19.1,9.8
					c6.2,6.1,14.1,29.9,14.1,29.9l-18.6,14.6c0,0-6.7-23.5-13-29.8s-10.4-5.6-15.7-11.6c-7-8-5.7-15.1-9.1-19.2
					c-5.3-6.3-7.4-3.2-14.2-10.9c-6.2-7-6.3-12.3-9.4-16c-4.4-5.2-7.1-4.8-12.1-10.7c-5.6-6.7-6-9.6-9.6-13.8
					c-4.4-5.2-6.2-7.5-10.2-13.3C189.3,207.5,182.6,193.6,182.6,193.6z"/>
			</g>
		</g>
		<g>
			<g>
				
					<linearGradient id="SVGID_13_" gradientUnits="userSpaceOnUse" x1="180.5" y1="181.4147" x2="180.5" y2="1.897" gradientTransform="matrix(-0.9397 0.342 -0.342 -0.9397 414.2433 301.9577)">
					<stop  offset="0" style="stop-color:#FF2727;stop-opacity:0.6"/>
					<stop  offset="0.512" style="stop-color:#F24C28;stop-opacity:0.6669"/>
					<stop  offset="1" style="stop-color:#ED2828;stop-opacity:0"/>
				</linearGradient>
				<path fill="url(#SVGID_13_)" d="M180.4,194c0,0,6.5,14,8.5,18.8c2.5,6.2,7.4,9.7,9.1,16.1c1.8,6.8,2.9,10,5,16
					s7.5,7.4,11.2,15.3c3.5,7.5,1.8,8.3,5.5,15c3,5.5,9.7,6.6,12.2,15.8c1.8,6.6-1.9,11,1.5,19.7c2.6,6.7,10.9,7.9,14.6,15.7
					c3.7,7.8,3.1,32.9,3.1,32.9l-22.4,7.4c0,0,1.8-24.4-2-32.4c-3.8-8.1-7.8-8.8-10.8-16.3c-3.9-9.9-0.2-16.1-2-21.1
					c-2.8-7.8-5.8-5.5-9.6-15.1c-3.4-8.7-1.7-13.7-3.3-18.2c-2.3-6.4-5-6.9-7.7-14.2c-3-8.2-2.4-11.1-4.2-16.3
					c-2.3-6.4-3.3-9.1-5.1-16C181.9,209.3,180.4,194,180.4,194z"/>
			</g>
		</g>
		<g>
			<g>
				
					<linearGradient id="SVGID_14_" gradientUnits="userSpaceOnUse" x1="180.5" y1="181.4147" x2="180.5" y2="1.897" gradientTransform="matrix(-1 0 0 -1 361 375)">
					<stop  offset="0" style="stop-color:#FF2727;stop-opacity:0.6"/>
					<stop  offset="0.512" style="stop-color:#F24C28;stop-opacity:0.6669"/>
					<stop  offset="1" style="stop-color:#ED2828;stop-opacity:0"/>
				</linearGradient>
				<path fill="url(#SVGID_14_)" d="M178.2,193.6c0,0,1.4,15.4,1.5,20.5c0.2,6.7,3.6,11.7,3,18.3c-0.6,7-0.7,10.4-0.8,16.7
					c0,6.3,4.6,9.5,5.3,18.3c0.7,8.2-1.1,8.4,0,16c0.9,6.2,6.8,9.5,6.1,19c-0.5,6.9-5.6,9.6-5.3,19c0.2,7.1,7.5,11.2,8.4,19.8
					c0.8,8.6-8.4,31.9-8.4,31.9l-23.6-0.8c0,0,10-22.3,9.2-31.2s-4.4-10.9-4.6-19c-0.3-10.6,5.3-15.2,5.3-20.5
					c0-8.3-3.6-7.2-3.9-17.5c-0.3-9.4,3.1-13.5,3.1-18.3c0-6.8-2.3-8.2-2.3-16c0-8.7,1.6-11.2,1.6-16.7c0-6.8,0-9.7,0.7-16.7
					C174.4,208.5,178.2,193.6,178.2,193.6z"/>
			</g>
		</g>
		<g>
			<g>
				
					<linearGradient id="SVGID_16_" gradientUnits="userSpaceOnUse" x1="180.5" y1="181.4147" x2="180.5" y2="1.897" gradientTransform="matrix(-0.9397 -0.342 0.342 -0.9397 285.9857 425.427)">
					<stop  offset="0" style="stop-color:#FF2727;stop-opacity:0.6"/>
					<stop  offset="0.512" style="stop-color:#F24C28;stop-opacity:0.6669"/>
					<stop  offset="1" style="stop-color:#ED2828;stop-opacity:0"/>
				</linearGradient>
				<path fill="url(#SVGID_16_)" d="M176.2,192.4c0,0-4,14.9-5.6,19.8c-2.1,6.4-0.6,12.2-3.4,18.2c-3,6.4-4.2,9.6-6.4,15.5
					c-2.2,5.9,1,10.5-1.2,19c-2.1,8-3.9,7.5-5.5,15c-1.3,6.1,3.2,11.3-0.8,20c-2.9,6.3-8.5,7.1-11.5,16c-2.3,6.8,3.3,13.1,1.1,21.4
					c-2.2,8.4-18.8,27.2-18.8,27.2l-21.9-8.8c0,0,17-17.5,19.3-26.2c2.3-8.6-0.4-11.8,2.2-19.4c3.4-10.1,10.2-12.5,12-17.5
					c2.8-7.8-0.9-8,2.4-17.8c3-8.9,7.5-11.6,9.2-16.1c2.3-6.4,0.6-8.5,3.3-15.8c3-8.2,5.3-10,7.2-15.2c2.3-6.4,3.4-9.1,6.4-15.5
					C167.6,205.1,176.2,192.4,176.2,192.4z"/>
			</g>
		</g>
		<g>
			<g>
				
					<linearGradient id="SVGID_18_" gradientUnits="userSpaceOnUse" x1="180.5" y1="181.4147" x2="180.5" y2="1.897" gradientTransform="matrix(-0.766 -0.6428 0.6428 -0.766 198.2484 447.1565)">
					<stop  offset="0" style="stop-color:#FF2727;stop-opacity:0.6"/>
					<stop  offset="0.512" style="stop-color:#F24C28;stop-opacity:0.6669"/>
					<stop  offset="1" style="stop-color:#ED2828;stop-opacity:0"/>
				</linearGradient>
				<path fill="url(#SVGID_18_)" d="M174.8,190.7c0,0-8.8,12.7-12,16.7c-4.2,5.3-4.7,11.3-9.4,15.9c-5,5-7.3,7.5-11.3,12.3
					s-2.6,10.2-7.7,17.4c-4.7,6.8-6.3,5.7-10.3,12.2c-3.3,5.3-0.9,11.7-7.6,18.5c-4.8,4.9-10.5,3.8-16.3,11.1
					c-4.4,5.6-1.4,13.4-6.3,20.5S67,334.6,67,334.6l-17.6-15.7c0,0,22-10.7,27.1-18c5.1-7.3,3.7-11.2,8.7-17.5
					c6.7-8.3,13.9-8.2,17.3-12.3c5.3-6.3,1.9-7.8,8.3-15.9c5.8-7.3,11-8.3,14.1-12c4.4-5.2,3.5-7.8,8.5-13.7
					c5.6-6.7,8.4-7.6,12-11.8c4.4-5.2,6.3-7.4,11.3-12.4C162.3,199.7,174.8,190.7,174.8,190.7z"/>
			</g>
		</g>
		<g>
			<g>
				
					<linearGradient id="SVGID_20_" gradientUnits="userSpaceOnUse" x1="180.5" y1="181.4147" x2="180.5" y2="1.897" gradientTransform="matrix(-0.5 -0.866 0.866 -0.5 108.3702 437.5676)">
					<stop  offset="0" style="stop-color:#FF2727;stop-opacity:0.6"/>
					<stop  offset="0.512" style="stop-color:#F24C28;stop-opacity:0.6669"/>
					<stop  offset="1" style="stop-color:#ED2828;stop-opacity:0"/>
				</linearGradient>
				<path fill="url(#SVGID_20_)" d="M174.1,188.5c0,0-12.6,8.9-17,11.6c-5.7,3.5-8.3,9-14.3,11.8c-6.4,3-9.4,4.6-14.9,7.7
					c-5.5,3.1-6,8.7-13.1,13.7c-6.8,4.7-7.8,3.2-13.8,8c-4.9,3.9-4.8,10.7-13.4,14.8c-6.2,3-11.1,0-19.1,4.9
					c-6.1,3.7-5.9,12.1-12.9,17.1c-7,5-31.9,8.7-31.9,8.7l-11.1-20.8c0,0,24.3-2.5,31.6-7.6s7.3-9.3,14.2-13.5
					c9.1-5.5,15.8-3,20.4-5.7c7.1-4.1,4.5-6.7,13.2-12.1c8-4.9,13.2-4.1,17.4-6.4c5.9-3.4,5.9-6.1,12.7-10c7.6-4.4,10.5-4.2,15.3-7
					c5.9-3.4,8.4-4.8,14.8-7.8C159.3,192.7,174.1,188.5,174.1,188.5z"/>
			</g>
		</g>
		<g>
			<g>
				
					<linearGradient id="SVGID_21_" gradientUnits="userSpaceOnUse" x1="180.5" y1="181.4147" x2="180.5" y2="1.897" gradientTransform="matrix(-0.1736 -0.9848 0.9848 -0.1736 27.192 397.8168)">
					<stop  offset="0" style="stop-color:#FF2727;stop-opacity:0.6"/>
					<stop  offset="0.512" style="stop-color:#F24C28;stop-opacity:0.6669"/>
					<stop  offset="1" style="stop-color:#ED2828;stop-opacity:0"/>
				</linearGradient>
				<path fill="url(#SVGID_21_)" d="M174.1,186.3c0,0-14.9,4-20,5.1c-6.6,1.4-10.9,5.6-17.5,6.2c-7,0.6-10.4,1.1-16.6,2.2
					s-8.6,6.1-17.1,8.4c-8,2.1-8.5,0.4-15.7,2.8c-5.9,2-8.2,8.4-17.7,9.3c-6.9,0.7-10.5-3.8-19.7-1.9c-7,1.4-9.7,9.4-18,11.7
					c-8.3,2.3-32.9-2.7-32.9-2.7l-3.3-23.4c0,0,23.7,6,32.3,3.6s10-6.2,17.9-7.8c10.4-2.1,15.9,2.6,21.2,1.7
					c8.1-1.4,6.5-4.8,16.6-6.8c9.2-1.9,13.8,0.7,18.5-0.1c6.7-1.2,7.7-3.7,15.3-5.1c8.6-1.5,11.3-0.4,16.8-1.4
					c6.7-1.2,9.6-1.7,16.6-2.2C158.8,185.1,174.1,186.3,174.1,186.3z"/>
			</g>
		</g>
		<g>
			<g>
				
					<linearGradient id="SVGID_22_" gradientUnits="userSpaceOnUse" x1="180.5" y1="181.4147" x2="180.5" y2="1.897" gradientTransform="matrix(0.1736 -0.9848 0.9848 0.1736 -35.4949 332.6988)">
					<stop  offset="0" style="stop-color:#FF2727;stop-opacity:0.6"/>
					<stop  offset="0.512" style="stop-color:#F24C28;stop-opacity:0.6669"/>
					<stop  offset="1" style="stop-color:#ED2828;stop-opacity:0"/>
				</linearGradient>
				<path fill="url(#SVGID_22_)" d="M174.9,184.2c0,0-15.4-1.3-20.5-2.1c-6.6-1-12.1,1.5-18.5-0.2c-6.8-1.8-10.1-2.5-16.3-3.7
					c-6.2-1.1-10.2,2.8-18.9,2.1c-8.2-0.7-8.1-2.6-15.7-2.8c-6.3-0.2-10.6,5.1-19.8,2.7c-6.7-1.7-8.5-7.2-17.8-8.5
					c-7.1-1.1-12.3,5.5-20.9,4.8c-8.6-0.7-30-13.8-30-13.8l4.8-23.1c0,0,20.2,13.7,29.1,14.5s11.5-2.4,19.5-1.2
					c10.5,1.6,14.1,7.9,19.3,8.8c8.1,1.4,7.7-2.3,17.9-0.8c9.3,1.4,12.7,5.4,17.4,6.2c6.7,1.2,8.5-0.9,16.1,0.5
					c8.6,1.5,10.8,3.5,16.2,4.5c6.7,1.2,9.6,1.7,16.4,3.6C160.9,177.8,174.9,184.2,174.9,184.2z"/>
			</g>
		</g>
		<g>
			<g>
				
					<linearGradient id="SVGID_24_" gradientUnits="userSpaceOnUse" x1="180.5" y1="181.4147" x2="180.5" y2="1.897" gradientTransform="matrix(0.5 -0.866 0.866 0.5 -72.1298 250.0676)">
					<stop  offset="0" style="stop-color:#FF2727;stop-opacity:0.6"/>
					<stop  offset="0.512" style="stop-color:#F24C28;stop-opacity:0.6669"/>
					<stop  offset="1" style="stop-color:#ED2828;stop-opacity:0"/>
				</linearGradient>
				<path fill="url(#SVGID_24_)" d="M176.4,182.5c0,0-14-6.5-18.5-9c-5.9-3.2-11.9-2.7-17.3-6.5c-5.8-4-8.7-5.8-14.1-9
					c-5.4-3.2-10.5-0.8-18.5-4.5c-7.5-3.5-6.7-5.2-13.8-8c-5.8-2.3-11.7,1.2-19.5-4.2c-5.7-3.9-5.6-9.6-13.8-14.1
					c-6.3-3.4-13.5,0.9-21.3-2.6c-7.9-3.6-23.5-23.2-23.5-23.2l12.4-20c0,0,14.3,19.8,22.4,23.5s11.7,1.7,18.8,5.6
					c9.3,5.1,10.5,12.2,15.1,14.9c7.1,4.1,8,0.5,17.1,5.4c8.3,4.5,10.1,9.4,14.3,11.8c5.9,3.4,8.3,2.1,15,6c7.6,4.4,8.9,7,13.7,9.7
					c5.9,3.4,8.4,4.9,14.1,9C165.4,171.7,176.4,182.5,176.4,182.5z"/>
			</g>
		</g>
		<g>
			<g>
				
					<linearGradient id="SVGID_25_" gradientUnits="userSpaceOnUse" x1="180.5" y1="181.4147" x2="180.5" y2="1.897" gradientTransform="matrix(0.766 -0.6428 0.6428 0.766 -78.2937 159.8898)">
					<stop  offset="0" style="stop-color:#FF2727;stop-opacity:0.6"/>
					<stop  offset="0.512" style="stop-color:#F24C28;stop-opacity:0.6669"/>
					<stop  offset="1" style="stop-color:#ED2828;stop-opacity:0"/>
				</linearGradient>
				<path fill="url(#SVGID_25_)" d="M178.4,181.4c0,0-10.9-10.9-14.4-14.8c-4.5-5-10.3-6.6-14.1-12c-4-5.8-6.2-8.4-10.2-13.3
					s-9.6-4.4-15.8-10.6c-5.8-5.8-4.6-7.2-10.3-12.2c-4.7-4.2-11.4-2.9-16.9-10.7c-4-5.6-1.9-11-8.1-18c-4.7-5.4-13-3.7-19.1-9.8
					C63.4,74,55.4,50.2,55.4,50.2l18.6-14.6c0,0,6.7,23.5,13,29.8c6.3,6.3,10.4,5.6,15.7,11.6c7,8,5.7,15.1,9.1,19.2
					c5.3,6.3,7.4,3.2,14.2,10.9c6.2,7,6.3,12.3,9.4,16c4.4,5.2,7.1,4.8,12.1,10.7c5.6,6.7,6,9.6,9.6,13.8c4.4,5.2,6.2,7.5,10.2,13.3
					C171.7,167.5,178.4,181.4,178.4,181.4z"/>
			</g>
		</g>
		<g>
			<g>
				
					<linearGradient id="SVGID_27_" gradientUnits="userSpaceOnUse" x1="180.5" y1="181.4147" x2="180.5" y2="1.897" gradientTransform="matrix(0.9397 -0.342 0.342 0.9397 -53.2433 73.0423)">
					<stop  offset="0" style="stop-color:#FF2727;stop-opacity:0.6"/>
					<stop  offset="0.512" style="stop-color:#F24C28;stop-opacity:0.6669"/>
					<stop  offset="1" style="stop-color:#ED2828;stop-opacity:0"/>
				</linearGradient>
				<path fill="url(#SVGID_27_)" d="M180.6,181c0,0-6.5-14-8.5-18.8c-2.5-6.2-7.4-9.7-9.1-16.1c-1.8-6.8-2.9-10-5-16
					c-2.1-5.9-7.5-7.4-11.2-15.3c-3.5-7.5-1.8-8.3-5.5-15c-3-5.5-9.7-6.6-12.2-15.8c-1.8-6.6,1.9-11-1.5-19.7
					c-2.6-6.7-10.9-7.9-14.6-15.7s-3.1-32.9-3.1-32.9l22.4-7.4c0,0-1.8,24.4,2,32.4c3.8,8.1,7.8,8.8,10.8,16.3
					c3.9,9.9,0.2,16.1,2,21.1c2.8,7.8,5.8,5.5,9.6,15.1c3.4,8.7,1.7,13.7,3.3,18.2c2.3,6.4,5,6.9,7.7,14.2c3,8.2,2.4,11.1,4.2,16.3
					c2.3,6.4,3.3,9.1,5.1,16C179.1,165.7,180.6,181,180.6,181z"/>
			</g>
		</g>
		<g>
			<g>
				<linearGradient id="SVGID_29_" gradientUnits="userSpaceOnUse" x1="180.5" y1="181.4147" x2="180.5" y2="1.897">
					<stop  offset="0" style="stop-color:#FF2727;stop-opacity:0.6"/>
					<stop  offset="0.512" style="stop-color:#F24C28;stop-opacity:0.6669"/>
					<stop  offset="1" style="stop-color:#ED2828;stop-opacity:0"/>
				</linearGradient>
				<path fill="url(#SVGID_29_)" d="M182.8,181.4c0,0-1.4-15.4-1.5-20.5c-0.2-6.7-3.6-11.7-3-18.3c0.6-7,0.7-10.4,0.8-16.7
					c0-6.3-4.6-9.5-5.3-18.3c-0.7-8.2,1.1-8.4,0-16c-0.9-6.2-6.8-9.5-6.1-19c0.5-6.9,5.6-9.6,5.3-19c-0.2-7.1-7.5-11.2-8.4-19.8
					s8.4-31.9,8.4-31.9l23.6,0.8c0,0-10,22.3-9.2,31.2s4.4,10.9,4.6,19c0.3,10.6-5.3,15.2-5.3,20.5c0,8.3,3.6,7.2,3.9,17.5
					c0.3,9.4-3.1,13.5-3.1,18.3c0,6.8,2.3,8.2,2.3,16c0,8.7-1.6,11.2-1.6,16.7c0,6.8,0,9.7-0.7,16.7
					C186.6,166.5,182.8,181.4,182.8,181.4z"/>
			</g>
		</g>
	</g>
</g>
<g id="Layer_22" display="none">
</g>
<g id="告知确定">
</g>
<g id="投保信息确认成功">
</g>
</svg>
